<?xml version="1.0" encoding="UTF-8"?>
<svg version="1.1" xmlns="http://www.w3.org/2000/svg" width="390" height="378">
<path d="M0 0 C0.70125 0.144375 1.4025 0.28875 2.125 0.4375 C1.56128586 3.70704202 0.62537734 5.26325883 -1.875 7.4375 C-1.070625 7.746875 -0.26625 8.05625 0.5625 8.375 C3.125 9.4375 3.125 9.4375 4.125 10.4375 C4.375 13.375 4.375 13.375 4.125 16.4375 C1.125 18.4375 1.125 18.4375 -2.875 18.4375 C-2.875 19.0975 -2.875 19.7575 -2.875 20.4375 C-0.56632303 21.23606676 0.68046195 21.59515061 3.01953125 20.765625 C3.65246094 20.40984375 4.28539063 20.0540625 4.9375 19.6875 C5.98164063 19.13255859 5.98164063 19.13255859 7.046875 18.56640625 C7.73265625 18.19386719 8.4184375 17.82132813 9.125 17.4375 C14.48993151 14.70797344 17.25301926 14.11156886 23.125 15.4375 C24.01574219 15.62570313 24.90648437 15.81390625 25.82421875 16.0078125 C33.08811801 17.59365751 40.22012223 19.56377581 47.36889648 21.59179688 C53.30799553 23.25740249 59.25860777 24.63014839 65.3046875 25.859375 C67.5981683 26.3295068 69.86030063 26.84670886 72.125 27.4375 C72.186875 26.53 72.24875 25.6225 72.3125 24.6875 C73.33686591 20.59003636 74.54153654 19.58757808 78.125 17.4375 C82.75156795 16.40039452 87.28195685 16.31556729 92 16.375 C92.68835938 16.37951172 93.37671875 16.38402344 94.0859375 16.38867188 C95.76566335 16.40033664 97.44534375 16.41826729 99.125 16.4375 C100.115 18.4175 100.115 18.4175 101.125 20.4375 C100.125 21.4375 100.125 21.4375 98.27734375 21.53515625 C96.2265625 21.50260417 94.17578125 21.47005208 92.125 21.4375 C92.0425 22.200625 91.96 22.96375 91.875 23.75 C91.125 26.4375 91.125 26.4375 89.375 28.25 C86.64748514 29.68952173 85.16383332 29.98293162 82.125 29.4375 C80.34702159 27.53252313 79.28518481 25.75786962 78.125 23.4375 C77.465 25.4175 76.805 27.3975 76.125 29.4375 C77.07375 29.56125 78.0225 29.685 79 29.8125 C99.47169811 32.78419811 99.47169811 32.78419811 103.125 36.4375 C103.03403444 39.30438248 102.88732012 42.14050515 102.6875 45 C102.63529297 45.80630859 102.58308594 46.61261719 102.52929688 47.44335938 C102.39922624 49.44171738 102.26270944 51.43965386 102.125 53.4375 C102.764375 53.72625 103.40375 54.015 104.0625 54.3125 C106.125 55.4375 106.125 55.4375 107.125 57.4375 C107.22595017 59.84545835 107.26636546 62.2173018 107.25 64.625 C107.24661621 65.33245361 107.24323242 66.03990723 107.23974609 66.76879883 C107.03847016 87.85830374 107.03847016 87.85830374 104.125 93.4375 C103.135 94.0975 102.145 94.7575 101.125 95.4375 C100.95120145 98.36850946 100.90761854 101.19661649 100.9375 104.125 C100.79334526 112.39801611 100.79334526 112.39801611 98.359375 116.18359375 C93.44217775 120.4375 93.44217775 120.4375 90.125 120.4375 C90.125 121.0975 90.125 121.7575 90.125 122.4375 C88.69921875 123.69140625 88.69921875 123.69140625 86.8125 125 C86.19761719 125.43441406 85.58273438 125.86882812 84.94921875 126.31640625 C83.125 127.4375 83.125 127.4375 80.125 128.4375 C84.0995011 129.7059578 87.64529138 130.52962657 91.8125 130.8125 C94.77549002 131.12040867 96.04019794 131.38449871 98.625 133 C100.125 135.4375 100.125 135.4375 100.25 139.25 C100.48482083 142.25794303 100.88045125 143.20074564 103.0859375 145.3359375 C105.70035841 147.1780987 108.3603327 148.83031717 111.125 150.4375 C111.92292969 150.93636719 112.72085938 151.43523437 113.54296875 151.94921875 C122.61420369 157.39820497 132.52651249 157.4515018 142.671875 155.1796875 C149.6923143 153.05566924 154.16954409 149.12153029 158.00390625 142.91796875 C160.26272823 137.92022674 160.125 132.82304219 160.125 127.4375 C159.568125 127.41171875 159.01125 127.3859375 158.4375 127.359375 C152.80177507 126.94050355 147.72140398 125.90960373 143.125 122.4375 C141.90234375 120.30078125 141.90234375 120.30078125 141.125 118.4375 C140.465 118.4375 139.805 118.4375 139.125 118.4375 C137.75005778 116.17288929 137.04508043 114.98095306 137.4375 112.3125 C138.125 110.4375 138.125 110.4375 139.125 108.4375 C139.785 108.4375 140.445 108.4375 141.125 108.4375 C141.125 107.7775 141.125 107.1175 141.125 106.4375 C141.785 106.4375 142.445 106.4375 143.125 106.4375 C143.125 105.7775 143.125 105.1175 143.125 104.4375 C142.073125 104.334375 141.02125 104.23125 139.9375 104.125 C136.16286262 103.44432769 134.09592484 102.81423987 131.125 100.4375 C128.25826208 96.00708684 129.08062309 91.37218089 130.125 86.4375 C131.52117099 82.46943509 132.4674822 80.8904567 135.9375 78.5 C141.79717284 76.54677572 146.89092535 78.93628386 152.5 81 C153.14066406 81.23396484 153.78132812 81.46792969 154.44140625 81.70898438 C156.0043161 82.28049619 157.56490727 82.85834229 159.125 83.4375 C159.455 82.1175 159.785 80.7975 160.125 79.4375 C164.57419588 78.12916963 168.44593631 78.63575083 173 79.125 C173.79019531 79.19138672 174.58039063 79.25777344 175.39453125 79.32617188 C180.56555429 79.87252789 184.105996 80.88654771 188.125 84.4375 C189.0859375 86.8046875 189.0859375 86.8046875 189.5 89.3125 C190.76787549 94.57727568 192.93942677 96.26463149 197.3828125 99.12109375 C199.125 100.4375 199.125 100.4375 200.125 103.3125 C200.125 104.01375 200.125 104.715 200.125 105.4375 C200.85332031 105.55738281 201.58164062 105.67726563 202.33203125 105.80078125 C205.12188713 106.43679035 207.25773078 107.35378633 209.8125 108.625 C214.71846466 110.93291348 219.6552041 112.62651857 224.8125 114.25 C231.15583791 116.27793676 237.16065865 118.65682051 243.125 121.625 C243.80135498 121.95798096 244.47770996 122.29096191 245.17456055 122.6340332 C248.42093512 124.30444888 250.06048439 125.34072659 252.125 128.4375 C251.58445946 132.97804054 251.58445946 132.97804054 250.125 134.4375 C243.7304721 135.06156489 238.78922078 133.16118687 232.875 130.875 C231.91859619 130.51583496 230.96219238 130.15666992 229.97680664 129.78662109 C227.99936213 129.04383462 226.02353251 128.29673521 224.04931641 127.54541016 C219.56727869 125.84733976 215.06395575 124.20821733 210.5625 122.5625 C209.0399415 122.00375571 207.51777657 121.44393724 205.99609375 120.8828125 C205.3191748 120.63563477 204.64225586 120.38845703 203.94482422 120.13378906 C202.40757524 119.54561706 200.90358464 118.87160684 199.41015625 118.1796875 C196.53664509 117.24641037 195.01988531 117.63921344 192.125 118.4375 C190.60132813 118.75847656 190.60132813 118.75847656 189.046875 119.0859375 C187.47679687 119.44558594 187.47679687 119.44558594 185.875 119.8125 C184.28945313 120.16441406 184.28945313 120.16441406 182.671875 120.5234375 C181.41117187 120.97589844 181.41117187 120.97589844 180.125 121.4375 C178.90437323 124.26431985 178.90437323 124.26431985 179.5625 126.5625 C181.94167648 138.72273535 178.4564892 150.04430075 172.125 160.4375 C170.24059549 162.81967174 168.49461361 164.49872523 166.125 166.4375 C165.465 166.4375 164.805 166.4375 164.125 166.4375 C164.125 167.0975 164.125 167.7575 164.125 168.4375 C150.23466057 175.07979765 150.23466057 175.07979765 144.125 176.4375 C142.98611328 176.71207031 142.98611328 176.71207031 141.82421875 176.9921875 C127.28856384 180.13619582 113.40705236 179.30951839 100.125 172.4375 C100.18558594 173.02200928 100.24617187 173.60651855 100.30859375 174.20874023 C101.60026622 187.11677103 102.39072388 200.00960189 102.53442383 212.97976685 C102.55307988 214.44676097 102.58036753 215.91367173 102.61645508 217.38034058 C102.66436096 219.45731424 102.67852641 221.53190834 102.68359375 223.609375 C102.70377563 225.4052002 102.70377563 225.4052002 102.72436523 227.23730469 C101.95962129 231.32050777 100.2494949 232.8096689 97.125 235.4375 C97.95644531 235.55867187 98.78789062 235.67984375 99.64453125 235.8046875 C101.27455078 236.05605469 101.27455078 236.05605469 102.9375 236.3125 C104.55591797 236.55613281 104.55591797 236.55613281 106.20703125 236.8046875 C109.125 237.4375 109.125 237.4375 112.125 239.4375 C111.135 242.4075 111.135 242.4075 110.125 245.4375 C108.475 245.7675 106.825 246.0975 105.125 246.4375 C104.795 247.7575 104.465 249.0775 104.125 250.4375 C103.465 250.4375 102.805 250.4375 102.125 250.4375 C101.795 251.4275 101.465 252.4175 101.125 253.4375 C99.145 253.1075 97.165 252.7775 95.125 252.4375 C95.125 253.7575 95.125 255.0775 95.125 256.4375 C94.54492188 256.41429687 93.96484375 256.39109375 93.3671875 256.3671875 C88.46103836 256.25384412 84.77403873 256.70762512 80.125 258.4375 C78.805 258.4375 77.485 258.4375 76.125 258.4375 C76.125 259.4275 76.125 260.4175 76.125 261.4375 C73.815 261.1075 71.505 260.7775 69.125 260.4375 C69.125 261.7575 69.125 263.0775 69.125 264.4375 C67.145 264.1075 65.165 263.7775 63.125 263.4375 C63.125 264.4275 63.125 265.4175 63.125 266.4375 C61.475 266.7675 59.825 267.0975 58.125 267.4375 C58.125 268.0975 58.125 268.7575 58.125 269.4375 C57.01125 269.540625 55.8975 269.64375 54.75 269.75 C53.55375 269.976875 52.3575 270.20375 51.125 270.4375 C50.465 271.4275 49.805 272.4175 49.125 273.4375 C47.475 273.1075 45.825 272.7775 44.125 272.4375 C44.125 273.7575 44.125 275.0775 44.125 276.4375 C41.79166667 276.4375 39.45833333 276.4375 37.125 276.4375 C37.125 277.4275 37.125 278.4175 37.125 279.4375 C35.6875 281.6875 35.6875 281.6875 33.125 283.4375 C30.04943731 283.47984854 27.13754976 283.02971064 24.125 282.4375 C23.795 283.7575 23.465 285.0775 23.125 286.4375 C21.145 286.4375 19.165 286.4375 17.125 286.4375 C16.795 287.4275 16.465 288.4175 16.125 289.4375 C12.165 289.1075 8.205 288.7775 4.125 288.4375 C3.63 286.9525 3.63 286.9525 3.125 285.4375 C0.11652582 284.21229736 0.11652582 284.21229736 -2.875 283.4375 C-2.875 284.4275 -2.875 285.4175 -2.875 286.4375 C-10.23886172 286.09096533 -17.0032739 284.46748774 -24.08984375 282.4921875 C-29.32534704 281.03337853 -34.59759764 279.73473857 -39.875 278.4375 C-39.875 277.1175 -39.875 275.7975 -39.875 274.4375 C-41.525 274.1075 -43.175 273.7775 -44.875 273.4375 C-45.37 271.9525 -45.37 271.9525 -45.875 270.4375 C-44.875 269.4375 -44.875 269.4375 -41.3125 269.375 C-40.178125 269.395625 -39.04375 269.41625 -37.875 269.4375 C-42.165 268.7775 -46.455 268.1175 -50.875 267.4375 C-51.37 265.4575 -51.37 265.4575 -51.875 263.4375 C-50.225 263.1075 -48.575 262.7775 -46.875 262.4375 C-49.185 262.1075 -51.495 261.7775 -53.875 261.4375 C-54.3390625 262.675 -54.3390625 262.675 -54.8125 263.9375 C-56.875 266.4375 -56.875 266.4375 -58.76171875 266.875 C-64.28098531 267.02911565 -69.98031879 266.09242753 -74.875 263.4375 C-75.37 261.9525 -75.37 261.9525 -75.875 260.4375 C-73.895 260.1075 -71.915 259.7775 -69.875 259.4375 C-70.33704215 256.94247237 -70.94745448 255.32464194 -72.33203125 253.16796875 C-74.00680259 250.20425948 -74.60842725 247.77034546 -75.25 244.4375 C-76.27859164 239.60640202 -77.64544118 235.20277593 -79.5 230.625 C-81.45843828 225.77889446 -82.56866378 221.64521575 -82.875 216.4375 C-77.5496021 212.81169717 -73.37381333 211.35738996 -66.875 212.4375 C-61.45285833 213.81853138 -56.1659649 215.62815449 -50.875 217.4375 C-49.75222656 217.746875 -48.62945312 218.05625 -47.47265625 218.375 C-46.61542969 218.725625 -45.75820312 219.07625 -44.875 219.4375 C-43.5 223.0625 -43.5 223.0625 -42.875 226.4375 C-37.76050093 225.32160929 -33.25142921 223.8466989 -28.5078125 221.6484375 C-25.23830806 220.14465949 -21.93395306 218.72655299 -18.625 217.3125 C-17.46484375 216.81492187 -16.3046875 216.31734375 -15.109375 215.8046875 C-11.875 214.4375 -11.875 214.4375 -9.078125 213.6328125 C-6.63512884 212.5956893 -6.63512884 212.5956893 -5.7265625 209.87841797 C-4.73571323 205.87468242 -4.78302366 202.2596835 -5.046875 198.1875 C-5.11059296 197.02299316 -5.11059296 197.02299316 -5.17559814 195.83496094 C-5.26771011 194.20084627 -5.36553037 192.56704442 -5.46875 190.93359375 C-5.62447201 188.44593459 -5.75889894 185.95778275 -5.890625 183.46875 C-5.98310941 181.87492606 -6.07681861 180.28117262 -6.171875 178.6875 C-6.2115741 177.94983398 -6.25127319 177.21216797 -6.29217529 176.45214844 C-6.57560312 172.16562593 -7.17642689 168.39829827 -8.875 164.4375 C-10.90743548 163.46872943 -10.90743548 163.46872943 -12.875 163.4375 C-11.125 159.5625 -11.125 159.5625 -8.875 158.4375 C-8.875 150.8475 -8.875 143.2575 -8.875 135.4375 C-22.32643206 135.906736 -36.9053298 138.0910118 -47.875 146.4375 C-47.565625 147.18 -47.25625 147.9225 -46.9375 148.6875 C-46.586875 149.595 -46.23625 150.5025 -45.875 151.4375 C-45.606875 152.05625 -45.33875 152.675 -45.0625 153.3125 C-44.75573176 156.78920676 -46.37994556 159.32778677 -47.875 162.4375 C-47.2459375 162.41429687 -46.616875 162.39109375 -45.96875 162.3671875 C-36.80588285 162.17399452 -30.43182079 162.87031114 -23.578125 169.38671875 C-20.18293387 173.47496495 -18.81715036 177.71443475 -18.9296875 183.01171875 C-19.15280821 185.16517166 -19.50262107 187.30478431 -19.875 189.4375 C-18.823125 189.0353125 -18.823125 189.0353125 -17.75 188.625 C-14.875 188.4375 -14.875 188.4375 -11.6875 190.3125 C-8.58196799 193.19276026 -7.61368247 196.16583839 -6.9140625 200.28125 C-6.85779434 203.38725234 -7.90389615 205.10137692 -9.875 207.4375 C-10.875 208.4375 -10.875 208.4375 -14.4375 208.5 C-15.571875 208.479375 -16.70625 208.45875 -17.875 208.4375 C-18.266875 209.38625 -18.65875 210.335 -19.0625 211.3125 C-20.875 214.4375 -20.875 214.4375 -23.125 215.875 C-26.80962147 216.62867257 -29.25204133 216.49145161 -32.875 215.4375 C-33.43574219 214.4371875 -33.99648437 213.436875 -34.57421875 212.40625 C-36.65191336 209.02311396 -36.65191336 209.02311396 -40.703125 208.84375 C-42.17736857 208.85539621 -43.65155895 208.88748806 -45.125 208.9375 C-51.33240009 208.86012879 -55.68744367 208.61075882 -60.4296875 204.1875 C-66.69684203 196.59916155 -66.95889176 190.40119299 -66.51953125 180.84765625 C-66.9488074 176.72943562 -67.91446631 175.28281834 -70.875 172.4375 C-73.35108479 170.9494498 -73.35108479 170.9494498 -76 169.875 C-80.55318312 167.92267074 -80.55318312 167.92267074 -82.16015625 165.5 C-83.25098346 162.35269525 -83.16470946 159.74018783 -82.875 156.4375 C-81.47039303 153.56444028 -80.12989001 151.69239001 -77.875 149.4375 C-75.25 149.3125 -75.25 149.3125 -72.875 149.4375 C-72.545 150.0975 -72.215 150.7575 -71.875 151.4375 C-71.45541016 150.49390625 -71.45541016 150.49390625 -71.02734375 149.53125 C-64.70531478 136.03341323 -54.73304424 127.76404469 -40.875 122.4375 C-39.658125 121.93992187 -38.44125 121.44234375 -37.1875 120.9296875 C-32.70398761 119.25450607 -28.22193613 118.49706405 -23.5 117.8125 C-18.02683169 117.17714562 -18.02683169 117.17714562 -12.875 115.4375 C-13.44089844 115.24414062 -14.00679688 115.05078125 -14.58984375 114.8515625 C-15.32332031 114.59117187 -16.05679688 114.33078125 -16.8125 114.0625 C-17.54339844 113.80726563 -18.27429688 113.55203125 -19.02734375 113.2890625 C-20.875 112.4375 -20.875 112.4375 -21.875 110.4375 C-22.05039513 108.44217424 -22.17310328 106.44210363 -22.26953125 104.44140625 C-22.33849609 103.24322266 -22.40746094 102.04503906 -22.47851562 100.81054688 C-22.61759123 98.27469166 -22.74523866 95.73818329 -22.86132812 93.20117188 C-22.93416016 92.00169922 -23.00699219 90.80222656 -23.08203125 89.56640625 C-23.1385083 88.46369385 -23.19498535 87.36098145 -23.25317383 86.22485352 C-23.61230105 83.32395761 -23.61230105 83.32395761 -25.8503418 81.70678711 C-26.518479 81.28792236 -27.18661621 80.86905762 -27.875 80.4375 C-30.1658994 75.73512754 -30.24465115 70.82037358 -30.578125 65.68359375 C-30.9735165 61.36029988 -31.84247079 57.17222253 -32.765625 52.93359375 C-32.875 50.4375 -32.875 50.4375 -31.546875 48.59765625 C-29.875 47.4375 -29.875 47.4375 -27.875 47.4375 C-27.875 43.8075 -27.875 40.1775 -27.875 36.4375 C-26.80121094 35.90640625 -25.72742188 35.3753125 -24.62109375 34.828125 C-23.18484158 34.11469255 -21.74864672 33.40114471 -20.3125 32.6875 C-19.60802734 32.33945313 -18.90355469 31.99140625 -18.17773438 31.6328125 C-13.64948974 29.37912392 -9.2440242 26.98657588 -4.875 24.4375 C-5.32875 24.045625 -5.7825 23.65375 -6.25 23.25 C-9.36490957 19.77567779 -10.09331636 16.64714362 -9.875 12.0625 C-9.06928349 6.33615763 -6.03981929 0.91910294 0 0 Z M-3.875 12.4375 C-3.875 13.0975 -3.875 13.7575 -3.875 14.4375 C-2.555 14.1075 -1.235 13.7775 0.125 13.4375 C-1.195 13.1075 -2.515 12.7775 -3.875 12.4375 Z M9.0625 22.875 C8.32805664 23.23609863 7.59361328 23.59719727 6.83691406 23.96923828 C0.77606763 26.99181405 -5.10248588 30.31214208 -10.921875 33.7734375 C-13.53321228 35.24490533 -16.06580012 36.40746004 -18.875 37.4375 C-18.875 37.7675 -18.875 38.0975 -18.875 38.4375 C-17.8025 38.50066406 -16.73 38.56382813 -15.625 38.62890625 C7.40502678 40.30967298 30.34049655 45.91070392 52.125 53.4375 C60.48669078 56.48548912 60.48669078 56.48548912 69.125 55.4375 C71.31145944 53.91999838 73.32970067 52.26626344 75.37109375 50.55859375 C80.90838802 46.29369902 87.08975528 42.94414416 93.125 39.4375 C90.17776949 37.47267966 88.00522174 36.6813783 84.625 35.75 C83.6659375 35.47800781 82.706875 35.20601562 81.71875 34.92578125 C79.02436322 34.20089081 79.02436322 34.20089081 76.125 35.4375 C76.62 37.9125 76.62 37.9125 77.125 40.4375 C75.805 40.4375 74.485 40.4375 73.125 40.4375 C72.63 36.9725 72.63 36.9725 72.125 33.4375 C67.012195 31.60852911 61.84608805 30.39254604 56.5625 29.1875 C48.00168525 27.20225176 39.55962621 24.93022469 31.14233398 22.40527344 C22.56555683 19.86713546 17.17463495 18.70266984 9.0625 22.875 Z M84.125 22.4375 C84.125 23.0975 84.125 23.7575 84.125 24.4375 C85.115 24.4375 86.105 24.4375 87.125 24.4375 C87.125 23.7775 87.125 23.1175 87.125 22.4375 C86.135 22.4375 85.145 22.4375 84.125 22.4375 Z M-22.875 41.4375 C-22.73605852 44.54201549 -22.587657 47.64600835 -22.4375 50.75 C-22.39818359 51.63107422 -22.35886719 52.51214844 -22.31835938 53.41992188 C-22.27646484 54.26748047 -22.23457031 55.11503906 -22.19140625 55.98828125 C-22.15474854 56.76856689 -22.11809082 57.54885254 -22.08032227 58.3527832 C-21.93374737 60.63079101 -21.93374737 60.63079101 -20.875 63.4375 C-20.60243323 65.3001585 -20.36811041 67.16852661 -20.15625 69.0390625 C-20.02903564 70.16207764 -19.90182129 71.28509277 -19.77075195 72.44213867 C-19.64015381 73.63685791 -19.50955566 74.83157715 -19.375 76.0625 C-19.1742688 77.87874878 -19.1742688 77.87874878 -18.96948242 79.73168945 C-17.97590415 88.95865016 -17.25422708 98.16605172 -16.875 107.4375 C-1.8510087 116.11228613 16.24016008 119.0988112 32.86328125 123.5078125 C38.83041502 125.09170528 44.79554784 126.68152251 50.75 128.3125 C51.45890381 128.50328125 52.16780762 128.6940625 52.89819336 128.890625 C56.18386368 129.79735667 59.08914093 130.912702 62.125 132.4375 C63.115 132.4375 64.105 132.4375 65.125 132.4375 C65.15000541 128.34815419 65.16800222 124.25883895 65.17993164 120.16943359 C65.18491293 118.78270694 65.19170039 117.39598541 65.20043945 116.00927734 C65.24343301 109.00385601 65.19963393 102.09257601 64.38110352 95.12744141 C63.78642557 88.88133885 63.73890543 82.58245296 63.5625 76.3125 C63.51919844 74.86457378 63.47558094 73.41665698 63.43164062 71.96875 C63.32578894 68.45843422 63.22419761 64.94801087 63.125 61.4375 C58.63058648 59.6848708 54.38601798 58.10962825 49.625 57.25 C48.7690625 57.09144531 47.913125 56.93289062 47.03125 56.76953125 C46.08765625 56.60517578 46.08765625 56.60517578 45.125 56.4375 C48.00949328 60.6440527 51.01368244 62.76742435 55.41796875 65.12890625 C57.125 66.4375 57.125 66.4375 57.89453125 68.45703125 C58.125 70.4375 58.125 70.4375 57.625 72.5625 C55.34050432 75.41811959 52.59369608 75.66667865 49.125 76.4375 C48.485625 75.756875 47.84625 75.07625 47.1875 74.375 C43.4909427 70.66788111 39.295655 67.58600878 35.125 64.4375 C34.41472656 63.87289062 33.70445312 63.30828125 32.97265625 62.7265625 C31.2271061 61.2467728 31.2271061 61.2467728 29.125 61.4375 C29.785 59.1275 30.445 56.8175 31.125 54.4375 C33.105 54.4375 35.085 54.4375 37.125 54.4375 C28.33867663 49.54412684 17.05981837 48.09297748 7.22949219 46.38891602 C2.30977728 45.52988864 2.30977728 45.52988864 0.125 44.4375 C-1.61136697 44.1487098 -3.35523322 43.90428371 -5.1015625 43.68359375 C-6.1328125 43.55146484 -7.1640625 43.41933594 -8.2265625 43.28320312 C-9.84691406 43.08114258 -9.84691406 43.08114258 -11.5 42.875 C-12.58796875 42.73642578 -13.6759375 42.59785156 -14.796875 42.45507812 C-17.48918868 42.11263472 -20.18188654 41.77358589 -22.875 41.4375 Z M94.7109375 43.8359375 C94.18757813 44.36445312 93.66421875 44.89296875 93.125 45.4375 C91.30051463 46.31595592 89.47561836 47.19357078 87.6484375 48.06640625 C82.18646965 51.03413182 77.168775 54.81478859 72.125 58.4375 C71.0568103 59.0577002 71.0568103 59.0577002 69.96704102 59.69042969 C67.8590837 61.34026251 67.8590837 61.34026251 67.6550293 64.1862793 C67.66961182 65.28367432 67.68419434 66.38106934 67.69921875 67.51171875 C67.70695313 68.72827148 67.7146875 69.94482422 67.72265625 71.19824219 C67.75230469 72.49407227 67.78195313 73.78990234 67.8125 75.125 C67.8294547 76.46385101 67.84507539 77.80271956 67.859375 79.14160156 C67.97311852 86.86668254 68.30015211 94.53310732 68.90234375 102.234375 C69.53273014 111.93490908 69.20054016 121.72187296 69.125 131.4375 C69.54765137 131.06383301 69.97030273 130.69016602 70.40576172 130.30517578 C74.52673597 126.71052469 78.76521005 123.43706795 83.25 120.3125 C85.55107126 118.70025268 87.84112144 117.07397991 90.125 115.4375 C91.09179688 114.75945312 92.05859375 114.08140625 93.0546875 113.3828125 C93.73789063 112.74085938 94.42109375 112.09890625 95.125 111.4375 C95.125 110.1175 95.125 108.7975 95.125 107.4375 C92.1530615 108.56201727 89.79059313 109.66043791 87.125 111.4375 C84.4375 111.5625 84.4375 111.5625 82.125 111.4375 C81.691875 110.4784375 81.691875 110.4784375 81.25 109.5 C80.29676549 107.28543921 80.29676549 107.28543921 78.125 106.4375 C77.7528958 105.11446283 77.41869827 103.78012065 77.125 102.4375 C76.795 102.1075 76.465 101.7775 76.125 101.4375 C75.96470312 98.48220496 75.86542672 95.54767543 75.80859375 92.58984375 C75.78781265 91.7034169 75.76703156 90.81699005 75.74562073 89.90370178 C75.680026 87.060883 75.62119448 84.21796883 75.5625 81.375 C75.5193242 79.45246394 75.47571022 77.52993766 75.43164062 75.60742188 C75.32433457 70.88421332 75.22309549 66.16090847 75.125 61.4375 C75.88941406 61.13714844 76.65382812 60.83679688 77.44140625 60.52734375 C80.42658982 59.31502029 83.25527233 57.90164677 86.125 56.4375 C89.74253557 54.59181859 93.33068306 52.88826824 97.125 51.4375 C97.455 48.4675 97.785 45.4975 98.125 42.4375 C96.03054664 42.20311081 96.03054664 42.20311081 94.7109375 43.8359375 Z M88.3125 59.9375 C87.71501953 60.27136719 87.11753906 60.60523438 86.50195312 60.94921875 C85.03765388 61.76922633 83.58056863 62.60209312 82.125 63.4375 C83.7634041 64.29221747 83.7634041 64.29221747 86.125 64.4375 C88.66357885 63.38358774 90.96995527 62.29784426 93.375 61 C94.34953125 60.49243164 94.34953125 60.49243164 95.34375 59.97460938 C96.94314494 59.13963113 98.53485859 58.28996886 100.125 57.4375 C100.125 57.1075 100.125 56.7775 100.125 56.4375 C95.31657661 55.93039697 92.44805971 57.59819349 88.3125 59.9375 Z M85.125 68.4375 C82.97578342 72.38491498 83.06760318 76.0035956 83.125 80.4375 C83.10205241 82.02999551 83.07579911 83.62244558 83.046875 85.21484375 C82.99063152 89.62563024 83.03679715 94.02735731 83.125 98.4375 C85.3805268 97.53287695 87.62870204 96.6145436 89.875 95.6875 C90.50921875 95.43484375 91.1434375 95.1821875 91.796875 94.921875 C95.72002334 93.28722986 98.47301501 91.76598277 101.125 88.4375 C101.76414976 85.45062126 101.76414976 85.45062126 101.734375 82.140625 C101.76660156 80.93535156 101.79882812 79.73007813 101.83203125 78.48828125 C101.84621094 77.23402344 101.86039063 75.97976562 101.875 74.6875 C101.91947266 72.78291016 101.91947266 72.78291016 101.96484375 70.83984375 C102.03553951 67.70566515 102.08824012 64.57223044 102.125 61.4375 C95.88607003 61.4375 90.06585868 64.8469381 85.125 68.4375 Z M-25.875 67.4375 C-25.545 69.4175 -25.215 71.3975 -24.875 73.4375 C-24.545 72.4475 -24.215 71.4575 -23.875 70.4375 C-24.535 69.4475 -25.195 68.4575 -25.875 67.4375 Z M80.125 67.4375 C81.125 70.4375 81.125 70.4375 81.125 70.4375 Z M48.125 69.4375 C48.125 70.0975 48.125 70.7575 48.125 71.4375 C48.785 71.1075 49.445 70.7775 50.125 70.4375 C49.465 70.1075 48.805 69.7775 48.125 69.4375 Z M137.5625 84.3125 C134.17866178 88.65075413 134.66108748 92.12827891 135.125 97.4375 C137.53098449 97.61486278 137.53098449 97.61486278 140.125 97.4375 C142.81257875 94.89923118 143.97851218 92.88611894 145.125 89.375 C145.42836752 86.31744392 145.42836752 86.31744392 143.25 84.0625 C140.49385439 81.86546727 140.49385439 81.86546727 137.5625 84.3125 Z M164.125 84.4375 C164.125 85.4275 164.125 86.4175 164.125 87.4375 C164.764375 87.80875 165.40375 88.18 166.0625 88.5625 C168.93970577 91.17814161 168.72650478 93.42290929 168.94921875 97.18359375 C169.11997072 99.37301346 169.53369511 101.32707037 170.125 103.4375 C171.83244921 97.05335093 171.83244921 97.05335093 171.5625 90.5625 C169.76802385 87.90979613 167.74837009 86.25367929 165.125 84.4375 C164.795 84.4375 164.465 84.4375 164.125 84.4375 Z M173.125 84.4375 C173.785 85.4275 174.445 86.4175 175.125 87.4375 C175.96778673 94.91612332 176.46183698 102.58278246 171.6796875 108.796875 C166.09562239 114.68960702 160.4002201 119.22055587 152.125 120.4375 C152.125 120.7675 152.125 121.0975 152.125 121.4375 C158.5375658 121.87974592 160.74733556 121.09431182 166.125 117.4375 C169.42464739 116.53307858 172.74348524 115.9453955 176.125 115.4375 C176.125 116.0975 176.125 116.7575 176.125 117.4375 C179.16083404 116.77384383 179.16083404 116.77384383 180.22265625 114.73046875 C180.70025391 113.68826172 180.70025391 113.68826172 181.1875 112.625 C181.50847656 111.93792969 181.82945312 111.25085938 182.16015625 110.54296875 C182.63775391 109.50076172 182.63775391 109.50076172 183.125 108.4375 C183.48980469 107.81230469 183.85460937 107.18710938 184.23046875 106.54296875 C186.51664433 101.16197034 185.59145134 94.18669253 184.125 88.6875 C183.795 87.945 183.465 87.2025 183.125 86.4375 C179.825 85.7775 176.525 85.1175 173.125 84.4375 Z M149.125 85.4375 C149.455 86.4275 149.785 87.4175 150.125 88.4375 C150.785 87.7775 151.445 87.1175 152.125 86.4375 C151.135 86.1075 150.145 85.7775 149.125 85.4375 Z M149.125 90.4375 C148.795 92.0875 148.465 93.7375 148.125 95.4375 C153.78071861 97.14445733 159.43992008 98.83084698 165.125 100.4375 C164.795 98.7875 164.465 97.1375 164.125 95.4375 C163.20976562 95.16035156 162.29453125 94.88320312 161.3515625 94.59765625 C160.16304687 94.23542969 158.97453125 93.87320313 157.75 93.5 C156.56664062 93.14035156 155.38328125 92.78070313 154.1640625 92.41015625 C151.125 91.4375 151.125 91.4375 149.125 90.4375 Z M146.125 96.4375 C144.48823743 98.3975281 144.48823743 98.3975281 143.125 100.4375 C145.105 100.4375 147.085 100.4375 149.125 100.4375 C148.795 99.1175 148.465 97.7975 148.125 96.4375 C147.465 96.4375 146.805 96.4375 146.125 96.4375 Z M155.125 102.4375 C157.6904594 105.0029594 159.60186668 104.97796087 163.125 105.4375 C163.125 104.7775 163.125 104.1175 163.125 103.4375 C160.485 103.1075 157.845 102.7775 155.125 102.4375 Z M166.125 106.4375 C167.125 108.4375 167.125 108.4375 167.125 108.4375 Z M188.125 106.4375 C189.125 108.4375 189.125 108.4375 189.125 108.4375 Z M197.125 109.4375 C197.125 110.4275 197.125 111.4175 197.125 112.4375 C198.85236278 113.04715745 200.57973213 113.6567963 202.30712891 114.26635742 C203.82644257 114.80267284 205.34564615 115.33930022 206.86474609 115.8762207 C210.83833202 117.28017747 214.8134772 118.6792692 218.79296875 120.06640625 C219.54070557 120.3279248 220.28844238 120.58944336 221.05883789 120.85888672 C222.48051869 121.35596018 223.9028463 121.85118902 225.32592773 122.34423828 C228.5910176 123.48815886 231.7334431 124.707203 234.8671875 126.17578125 C238.01921763 127.39653153 239.10094472 127.76808432 242.125 126.4375 C234.63874132 122.76175924 227.41239034 119.76189247 219.40234375 117.44140625 C214.87311738 116.05402702 210.49841066 114.33288679 206.09765625 112.5859375 C203.13326438 111.44069281 200.14700509 110.41931387 197.125 109.4375 Z M144.125 110.4375 C143.78529598 113.45391903 143.78529598 113.45391903 145.6875 115.125 C149.03457562 116.92727149 151.3746721 116.83932085 155.125 116.4375 C157.52583438 115.07864884 157.52583438 115.07864884 159.125 113.4375 C157.908125 113.458125 156.69125 113.47875 155.4375 113.5 C147.17287234 113.48537234 147.17287234 113.48537234 144.125 110.4375 Z M166.125 121.4375 C166.125 123.0875 166.125 124.7375 166.125 126.4375 C168.435 125.7775 170.745 125.1175 173.125 124.4375 C173.125 123.1175 173.125 121.7975 173.125 120.4375 C169.49614676 120.28600702 169.49614676 120.28600702 166.125 121.4375 Z M-16.875 122.4375 C-16.875 125.0775 -16.875 127.7175 -16.875 130.4375 C-15.555 130.7675 -14.235 131.0975 -12.875 131.4375 C-12.545 128.1375 -12.215 124.8375 -11.875 121.4375 C-14.8004644 121.2138932 -14.8004644 121.2138932 -16.875 122.4375 Z M-24.5 123.9375 C-24.95375 124.4325 -25.4075 124.9275 -25.875 125.4375 C-25.215 127.4175 -24.555 129.3975 -23.875 131.4375 C-22.885 131.4375 -21.895 131.4375 -20.875 131.4375 C-20.875 128.4675 -20.875 125.4975 -20.875 122.4375 C-22.99864481 122.21140663 -22.99864481 122.21140663 -24.5 123.9375 Z M-34.875 125.4375 C-34.545 128.0775 -34.215 130.7175 -33.875 133.4375 C-31.895 133.1075 -29.915 132.7775 -27.875 132.4375 C-27.875 131.7775 -27.875 131.1175 -27.875 130.4375 C-28.535 130.4375 -29.195 130.4375 -29.875 130.4375 C-29.875 128.4575 -29.875 126.4775 -29.875 124.4375 C-32.08581851 124.33209074 -32.08581851 124.33209074 -34.875 125.4375 Z M7.125 125.4375 C7.125 126.0975 7.125 126.7575 7.125 127.4375 C7.785 127.1075 8.445 126.7775 9.125 126.4375 C8.465 126.1075 7.805 125.7775 7.125 125.4375 Z M-43.875 128.4375 C-43.875 129.0975 -43.875 129.7575 -43.875 130.4375 C-43.215 130.4375 -42.555 130.4375 -41.875 130.4375 C-41.215 132.0875 -40.555 133.7375 -39.875 135.4375 C-39.215 135.4375 -38.555 135.4375 -37.875 135.4375 C-38.39768466 132.67473823 -38.98369587 130.1114124 -39.875 127.4375 C-41.9495356 127.2884288 -41.9495356 127.2884288 -43.875 128.4375 Z M-4.875 127.4375 C-4.19445745 141.96127027 -4.19445745 141.96127027 -2.875 156.4375 C1.10696457 157.49154945 4.10695309 157.27848656 8.125 156.4375 C8.125 152.8075 8.125 149.1775 8.125 145.4375 C16.45819287 146.07851484 24.05405528 148.65199793 31.6875 152 C37.62169523 154.48157255 43.66864022 156.4375 50.125 156.4375 C50.36992187 155.82390625 50.61484375 155.2103125 50.8671875 154.578125 C52.37552285 152.01114433 53.56756788 151.39892096 56.25 150.1875 C56.97445312 149.85234375 57.69890625 149.5171875 58.4453125 149.171875 C58.99960938 148.92953125 59.55390625 148.6871875 60.125 148.4375 C53.81797253 144.23281502 46.99663592 142.29720046 39.6015625 140.9921875 C37.06384816 140.42380353 34.88525736 139.59159097 32.5 138.5625 C27.43599232 136.41049674 22.29791292 135.15089646 16.96533203 133.87207031 C5.09356923 131.01242795 5.09356923 131.01242795 0.078125 128.3515625 C-1.96845425 127.22556156 -1.96845425 127.22556156 -4.875 127.4375 Z M16.125 127.4375 C15.795 128.0975 15.465 128.7575 15.125 129.4375 C16.115 129.1075 17.105 128.7775 18.125 128.4375 C17.465 128.1075 16.805 127.7775 16.125 127.4375 Z M166.125 130.4375 C166.125 131.7575 166.125 133.0775 166.125 134.4375 C168.85747348 135.80373674 171.10698902 135.565926 174.125 135.4375 C175.48118499 134.31215895 175.48118499 134.31215895 175.1875 131.375 C175.166875 130.405625 175.14625 129.43625 175.125 128.4375 C171.97167043 128.4375 169.13042969 129.54700231 166.125 130.4375 Z M29.125 130.4375 C29.125 131.4275 29.125 132.4175 29.125 133.4375 C29.785 133.4375 30.445 133.4375 31.125 133.4375 C31.125 132.4475 31.125 131.4575 31.125 130.4375 C30.465 130.4375 29.805 130.4375 29.125 130.4375 Z M-48.875 131.4375 C-49.205 132.0975 -49.535 132.7575 -49.875 133.4375 C-47.895 135.0875 -45.915 136.7375 -43.875 138.4375 C-44.48777612 135.47574877 -45.12872522 134.05691217 -46.875 131.4375 C-47.535 131.4375 -48.195 131.4375 -48.875 131.4375 Z M39.125 134.4375 C38.795 135.0975 38.465 135.7575 38.125 136.4375 C39.115 136.7675 40.105 137.0975 41.125 137.4375 C41.125 136.4475 41.125 135.4575 41.125 134.4375 C40.465 134.4375 39.805 134.4375 39.125 134.4375 Z M52.125 134.4375 C51.795 135.0975 51.465 135.7575 51.125 136.4375 C52.115 136.1075 53.105 135.7775 54.125 135.4375 C53.465 135.1075 52.805 134.7775 52.125 134.4375 Z M-53.875 135.4375 C-55.36 137.4175 -55.36 137.4175 -56.875 139.4375 C-55.12255753 141.0858633 -55.12255753 141.0858633 -52.875 142.4375 C-50.66699472 142.22032648 -50.66699472 142.22032648 -48.875 141.4375 C-49.06971111 139.48750871 -49.06971111 139.48750871 -49.875 137.4375 C-51.8587767 136.15313266 -51.8587767 136.15313266 -53.875 135.4375 Z M44.125 136.4375 C43.795 137.0975 43.465 137.7575 43.125 138.4375 C43.785 138.4375 44.445 138.4375 45.125 138.4375 C44.795 137.7775 44.465 137.1175 44.125 136.4375 Z M50.125 136.4375 C49.795 137.4275 49.465 138.4175 49.125 139.4375 C49.785 139.4375 50.445 139.4375 51.125 139.4375 C50.795 138.4475 50.465 137.4575 50.125 136.4375 Z M81.125 135.4375 C78.9371837 136.84307471 78.9371837 136.84307471 76.75 138.8125 C73.54828352 141.574118 71.37252257 142.99225221 67.125 143.4375 C64.9375 143 64.9375 143 63.125 142.4375 C62.465 142.4375 61.805 142.4375 61.125 142.4375 C62.125 139.4375 62.125 139.4375 64.125 137.4375 C61.26373816 137.83215681 60.33360296 138.17662183 58.48828125 140.484375 C58.03839844 141.12890625 57.58851563 141.7734375 57.125 142.4375 C60.42800061 143.85799713 63.75885499 145.174017 67.125 146.4375 C67.90101563 146.74171875 68.67703125 147.0459375 69.4765625 147.359375 C72.9140742 148.4525766 75.05280458 148.92769893 78.40625 147.39453125 C80.73753213 145.8416738 82.91681588 144.1597281 85.125 142.4375 C87.29526565 141.09555241 89.48890997 139.80363452 91.69140625 138.515625 C92.16449219 138.15984375 92.63757813 137.8040625 93.125 137.4375 C93.125 136.7775 93.125 136.1175 93.125 135.4375 C89.16593183 136.87058135 85.83781819 138.76891949 82.3125 141.0625 C81.33667969 141.69414062 80.36085937 142.32578125 79.35546875 142.9765625 C78.61941406 143.45867187 77.88335937 143.94078125 77.125 144.4375 C76.795 143.4475 76.465 142.4575 76.125 141.4375 C80.085 138.9625 80.085 138.9625 84.125 136.4375 C83.135 136.1075 82.145 135.7775 81.125 135.4375 Z M53.125 139.4375 C53.455 140.0975 53.785 140.7575 54.125 141.4375 C55.115 141.1075 56.105 140.7775 57.125 140.4375 C55.805 140.1075 54.485 139.7775 53.125 139.4375 Z M95.125 139.4375 C94.31675781 140.05238281 93.50851563 140.66726562 92.67578125 141.30078125 C91.59645222 142.11731713 90.51701962 142.93371611 89.4375 143.75 C88.90705078 144.15412109 88.37660156 144.55824219 87.83007812 144.97460938 C84.69759309 147.33838642 81.52941143 149.48580588 78.125 151.4375 C78.28492432 151.99203857 78.44484863 152.54657715 78.60961914 153.11791992 C79.17083806 155.64380385 79.30149017 157.96466836 79.37109375 160.55078125 C79.40267578 161.54368164 79.43425781 162.53658203 79.46679688 163.55957031 C79.49837891 164.61241211 79.52996094 165.66525391 79.5625 166.75 C79.84548739 174.8247333 80.42827392 182.62758381 81.6484375 190.61328125 C82.63273811 198.51189027 82.81832998 206.48829028 83.125 214.4375 C83.62 213.4475 83.62 213.4475 84.125 212.4375 C88.11065046 211.83136091 92.09774969 211.69185265 96.125 211.4375 C95.795 216.7175 95.465 221.9975 95.125 227.4375 C87.25 230.8125 87.25 230.8125 84.125 231.4375 C84.125 233.0875 84.125 234.7375 84.125 236.4375 C87.09283129 234.98081217 89.98915313 233.42517914 92.875 231.8125 C93.67421875 231.36648438 94.4734375 230.92046875 95.296875 230.4609375 C96.20179688 229.95433594 96.20179688 229.95433594 97.125 229.4375 C97.41730186 213.99421834 96.56400167 198.81300323 95.125 183.4375 C93.475 183.4375 91.825 183.4375 90.125 183.4375 C90.063125 182.65375 90.00125 181.87 89.9375 181.0625 C89.18514542 177.70584111 88.204899 175.45160126 86.625 172.4375 C83.72504302 166.82197637 82.44094299 161.99269789 83.3515625 155.59375 C85.48932246 149.63393437 91.09227015 145.02261317 96.125 141.4375 C95.795 140.7775 95.465 140.1175 95.125 139.4375 Z M164.125 139.4375 C163.795 141.0875 163.465 142.7375 163.125 144.4375 C166.63276784 146.04105101 169.26854879 146.65786864 173.125 146.4375 C173.785 144.1275 174.445 141.8175 175.125 139.4375 C171.495 139.4375 167.865 139.4375 164.125 139.4375 Z M-58.875 147.4375 C-58.09125 148.159375 -57.3075 148.88125 -56.5 149.625 C-54.03087562 152.27049041 -52.94239722 154.04123611 -51.875 157.4375 C-51.545 157.4375 -51.215 157.4375 -50.875 157.4375 C-51.12668741 152.48341382 -51.12668741 152.48341382 -53.75 148.5 C-55.92624322 147.2138932 -55.92624322 147.2138932 -58.875 147.4375 Z M93.16796875 149.08203125 C92.24951172 150.15517578 92.24951172 150.15517578 91.3125 151.25 C90.68730469 151.95769531 90.06210938 152.66539062 89.41796875 153.39453125 C88.77794922 154.40580078 88.77794922 154.40580078 88.125 155.4375 C88.455 156.4275 88.785 157.4175 89.125 158.4375 C92.47365457 157.32128181 92.84066145 156.76275771 94.6875 153.9375 C96.92347328 150.53826336 96.92347328 150.53826336 99.125 149.4375 C99.125 148.7775 99.125 148.1175 99.125 147.4375 C95.20934664 147.00860972 95.20934664 147.00860972 93.16796875 149.08203125 Z M161.125 148.4375 C159.64 150.4175 159.64 150.4175 158.125 152.4375 C160.765 154.0875 163.405 155.7375 166.125 157.4375 C167.83384005 155.81410195 169.49946717 154.14430947 171.125 152.4375 C171.125 151.7775 171.125 151.1175 171.125 150.4375 C167.825 149.7775 164.525 149.1175 161.125 148.4375 Z M12.125 149.4375 C12.455 150.7575 12.785 152.0775 13.125 153.4375 C14.46691406 153.80101562 14.46691406 153.80101562 15.8359375 154.171875 C21.44311436 155.72610313 26.95460049 157.26007468 32.3125 159.5625 C37.44075582 161.72984938 42.63531193 162.64431313 48.125 163.4375 C48.125 162.4475 48.125 161.4575 48.125 160.4375 C46.949375 160.334375 45.77375 160.23125 44.5625 160.125 C41.13469723 159.69503171 38.38356065 158.80804708 35.2421875 157.32421875 C31.38166986 155.70735989 27.32612137 154.65751096 23.30859375 153.5 C20.06284204 152.41675526 17.17414794 150.97738533 14.125 149.4375 C13.465 149.4375 12.805 149.4375 12.125 149.4375 Z M102.125 151.4375 C99.47747996 154.01534846 97.18067935 156.35398098 95.125 159.4375 C95.125 160.7575 95.125 162.0775 95.125 163.4375 C96.115 163.4375 97.105 163.4375 98.125 163.4375 C98.125 164.0975 98.125 164.7575 98.125 165.4375 C98.785 165.4375 99.445 165.4375 100.125 165.4375 C100.7746875 163.58125 100.7746875 163.58125 101.4375 161.6875 C102.61631697 158.52153441 103.87731247 156.00628575 106.125 153.4375 C104.805 152.7775 103.485 152.1175 102.125 151.4375 Z M69.125 151.4375 C69.125 152.7575 69.125 154.0775 69.125 155.4375 C68.526875 155.128125 67.92875 154.81875 67.3125 154.5 C65.03543228 153.33540296 65.03543228 153.33540296 62.125 152.4375 C61.465 154.7475 60.805 157.0575 60.125 159.4375 C61.115 160.0975 62.105 160.7575 63.125 161.4375 C63.3737793 164.32666016 63.3737793 164.32666016 63.19921875 167.9765625 C63.14443359 169.27851563 63.08964844 170.58046875 63.03320312 171.921875 C62.95996465 173.30210084 62.88639261 174.68230902 62.8125 176.0625 C62.74924925 177.45045766 62.6873829 178.83847916 62.62695312 180.2265625 C62.47327688 183.63108245 62.30536232 187.03430622 62.125 190.4375 C64.105 190.4375 66.085 190.4375 68.125 190.4375 C68.351875 191.200625 68.57875 191.96375 68.8125 192.75 C69.8919056 195.64142925 69.8919056 195.64142925 72.6875 196.75 C75.125 198.4375 75.125 198.4375 75.671875 200.3984375 C75.91100427 202.40290343 76.02584053 204.42125749 76.125 206.4375 C74.64 206.9325 74.64 206.9325 73.125 207.4375 C72.63 203.9725 72.63 203.9725 72.125 200.4375 C68.97762818 201.13691596 66.09911124 202.19828698 63.125 203.4375 C62.795 202.7775 62.465 202.1175 62.125 201.4375 C60.31384044 203.24865956 60.74300552 206.05028227 60.5625 208.5 C60.47871094 209.60472656 60.39492187 210.70945313 60.30859375 211.84765625 C60.21771484 213.12962891 60.21771484 213.12962891 60.125 214.4375 C51.69268889 212.91691931 43.66367093 209.73266038 35.75390625 206.5078125 C27.32356001 203.07554672 18.90061594 199.87407056 10.125 197.4375 C9.135 199.9125 9.135 199.9125 8.125 202.4375 C9.75912443 204.14590281 10.99406094 205.37203047 13.125 206.4375 C13.125 207.0975 13.125 207.7575 13.125 208.4375 C12.465 209.0975 11.805 209.7575 11.125 210.4375 C12.20136719 210.71722656 13.27773437 210.99695313 14.38671875 211.28515625 C22.84984104 213.57504007 30.1731427 216.27360161 37.8125 220.67578125 C42.77873879 223.31702381 47.98113497 225.13145959 53.265625 227.02734375 C56.71534456 228.26607572 60.074378 229.66561416 63.4375 231.125 C68.87780973 233.43843761 74.38523766 235.04775439 80.125 236.4375 C80.40905126 222.67679457 80.25219621 208.05746464 78.125 194.4375 C77.795 194.1075 77.465 193.7775 77.125 193.4375 C76.93021545 190.50715507 76.79444222 187.59416679 76.6953125 184.66015625 C76.62166828 182.84958591 76.54743117 181.03903962 76.47265625 179.22851562 C76.35899912 176.36027204 76.24972729 173.49208537 76.15087891 170.62329102 C76.05363112 167.86406285 75.93836779 165.10606174 75.8203125 162.34765625 C75.79518585 161.4861647 75.7700592 160.62467316 75.74417114 159.73707581 C75.64746672 157.629316 75.39886428 155.52962846 75.125 153.4375 C72.30990007 151.1601499 72.30990007 151.1601499 69.125 151.4375 Z M-76.875 154.4375 C-78.27435013 157.23620027 -78.12765405 159.34248792 -77.875 162.4375 C-76.25150914 164.62635989 -75.28971445 165.34366996 -72.61328125 165.94921875 C-71.81277344 166.00722656 -71.01226562 166.06523437 -70.1875 166.125 C-69.37925781 166.19074219 -68.57101563 166.25648438 -67.73828125 166.32421875 C-67.12339844 166.36160156 -66.50851563 166.39898437 -65.875 166.4375 C-68.59200609 164.42302285 -68.59200609 164.42302285 -70.875 163.8125 C-74.10658843 161.59078296 -74.75698193 158.07952857 -75.875 154.4375 C-76.205 154.4375 -76.535 154.4375 -76.875 154.4375 Z M-66.875 154.4375 C-67.205 155.7575 -67.535 157.0775 -67.875 158.4375 C-65.565 158.4375 -63.255 158.4375 -60.875 158.4375 C-60.545 157.1175 -60.215 155.7975 -59.875 154.4375 C-62.185 154.4375 -64.495 154.4375 -66.875 154.4375 Z M154.125 154.4375 C154.125 155.0975 154.125 155.7575 154.125 156.4375 C153.135 156.7675 152.145 157.0975 151.125 157.4375 C152.56753657 160.80341866 154.45764727 162.94797079 157.125 165.4375 C160.77816671 164.18773244 161.90565836 163.76651247 164.125 160.4375 C162.76375 159.7878125 162.76375 159.7878125 161.375 159.125 C158.69281551 157.73232729 156.46360395 156.32637243 154.125 154.4375 Z M109.125 156.4375 C105.8339159 160.04707611 104.57836079 162.56387153 104.125 167.4375 C106.79747634 169.78037418 106.79747634 169.78037418 110.125 170.4375 C110.310625 168.6121875 110.310625 168.6121875 110.5 166.75 C110.91391306 163.37270941 111.67073451 160.53993305 113.125 157.4375 C111.805 157.1075 110.485 156.7775 109.125 156.4375 Z M143.125 160.4375 C144.32399698 163.5206351 145.60200477 166.50029492 147.125 169.4375 C149.105 169.1075 151.085 168.7775 153.125 168.4375 C153.125 167.7775 153.125 167.1175 153.125 166.4375 C152.196875 165.756875 152.196875 165.756875 151.25 165.0625 C148.99057722 163.33470611 148.19749699 162.02936772 147.125 159.4375 C145.0504644 159.2884288 145.0504644 159.2884288 143.125 160.4375 Z M-2.875 160.4375 C-1.875 163.4375 -1.875 163.4375 -1.875 163.4375 Z M5.125 160.4375 C5.434375 161.3346875 5.434375 161.3346875 5.75 162.25 C6.125 164.4375 6.125 164.4375 4.125 167.4375 C2.145 167.4375 0.165 167.4375 -1.875 167.4375 C-1.215 180.3075 -0.555 193.1775 0.125 206.4375 C2.105 206.7675 4.085 207.0975 6.125 207.4375 C5.795 206.7775 5.465 206.1175 5.125 205.4375 C4.66235144 199.79318761 4.66235144 199.79318761 5.125 197.4375 C5.7857251 196.71771973 6.4464502 195.99793945 7.12719727 195.25634766 C9.68139658 191.65243891 9.58776873 189.55070047 9.515625 185.16796875 C9.50996521 184.48696609 9.50430542 183.80596344 9.49847412 183.10432434 C9.47620481 180.94381355 9.42603318 178.78500354 9.375 176.625 C9.35492247 175.15432095 9.33667389 173.68361571 9.3203125 172.21289062 C9.27637326 168.6205475 9.20741456 165.02918994 9.125 161.4375 C7.805 161.1075 6.485 160.7775 5.125 160.4375 Z M117.125 160.4375 C116.61884702 161.70589526 116.12030901 162.97733102 115.625 164.25 C115.3465625 164.95769531 115.068125 165.66539062 114.78125 166.39453125 C113.9720838 168.55591216 113.9720838 168.55591216 114.125 171.4375 C116.435 172.0975 118.745 172.7575 121.125 173.4375 C121.125 169.4775 121.125 165.5175 121.125 161.4375 C119.805 161.1075 118.485 160.7775 117.125 160.4375 Z M52.125 161.4375 C52.15622943 163.40506452 52.15622943 163.40506452 53.125 165.4375 C56.12115946 166.7420656 56.12115946 166.7420656 59.125 167.4375 C59.125 166.1175 59.125 164.7975 59.125 163.4375 C56.47761084 161.9768715 55.23051666 161.4375 52.125 161.4375 Z M134.125 161.4375 C133.58826107 166.79840593 133.58826107 166.79840593 135.625 171.4375 C136.12 171.7675 136.615 172.0975 137.125 172.4375 C139.105 171.7775 141.085 171.1175 143.125 170.4375 C141.805 167.4675 140.485 164.4975 139.125 161.4375 C137.475 161.4375 135.825 161.4375 134.125 161.4375 Z M-54.875 162.4375 C-56.89425867 163.20350582 -56.89425867 163.20350582 -59 164.375 C-59.72445312 164.75527344 -60.44890625 165.13554687 -61.1953125 165.52734375 C-62.02675781 165.97787109 -62.02675781 165.97787109 -62.875 166.4375 C-60.0325146 168.01023568 -60.0325146 168.01023568 -56.875 168.4375 C-55.49267557 166.81123596 -54.15562485 165.1449998 -52.875 163.4375 C-53.535 163.1075 -54.195 162.7775 -54.875 162.4375 Z M125.125 162.4375 C125.125 166.0675 125.125 169.6975 125.125 173.4375 C127.105 173.4375 129.085 173.4375 131.125 173.4375 C130.465 169.8075 129.805 166.1775 129.125 162.4375 C127.805 162.4375 126.485 162.4375 125.125 162.4375 Z M-41.875 167.4375 C-38.85612756 170.92081435 -36.30590471 172.22907144 -31.875 173.4375 C-31.730625 174.365625 -31.58625 175.29375 -31.4375 176.25 C-30.95399889 179.44475111 -30.95399889 179.44475111 -29.875 182.4375 C-28.885 182.7675 -27.895 183.0975 -26.875 183.4375 C-26.545 184.0975 -26.215 184.7575 -25.875 185.4375 C-25.215 185.4375 -24.555 185.4375 -23.875 185.4375 C-23.99359256 180.58598605 -24.3706873 177.23846723 -27 173.0625 C-30.90610408 169.49605714 -34.49176093 167.58962164 -39.8125 167.25 C-40.493125 167.311875 -41.17375 167.37375 -41.875 167.4375 Z M-50.875 170.4375 C-49.875 172.4375 -49.875 172.4375 -49.875 172.4375 Z M-62.875 172.4375 C-61.875 174.4375 -61.875 174.4375 -61.875 174.4375 Z M-57.875 175.4375 C-60.72978837 179.32117149 -61.28348144 182.16081496 -61.25 186.9375 C-61.25773437 188.0409375 -61.26546875 189.144375 -61.2734375 190.28125 C-60.59493036 195.65609085 -57.84323904 199.11393036 -53.6015625 202.42578125 C-48.10672 205.64560978 -42.37144562 204.39182988 -36.5625 202.91015625 C-36.005625 202.75417969 -35.44875 202.59820312 -34.875 202.4375 C-34.66342019 200.31762394 -34.66342019 200.31762394 -36.3125 198.6875 C-39.4229685 197.17019829 -40.09906026 197.60917954 -43.3125 198.5625 C-45.6875 199.19921875 -45.6875 199.19921875 -47.875 199.4375 C-51.63218963 196.79947324 -53.83342423 193.91627581 -54.875 189.4375 C-54.58913123 187.43641861 -54.30167919 185.43519808 -53.96875 183.44140625 C-53.81973913 180.25629894 -55.22822805 178.07233513 -56.875 175.4375 C-57.205 175.4375 -57.535 175.4375 -57.875 175.4375 Z M-45.875 176.4375 C-44.875 178.4375 -44.875 178.4375 -44.875 178.4375 Z M42.125 179.4375 C42.455 180.0975 42.785 180.7575 43.125 181.4375 C45.105 181.4375 47.085 181.4375 49.125 181.4375 C48.795 180.7775 48.465 180.1175 48.125 179.4375 C46.145 179.4375 44.165 179.4375 42.125 179.4375 Z M39.125 183.4375 C38.795 184.0975 38.465 184.7575 38.125 185.4375 C38.785 185.4375 39.445 185.4375 40.125 185.4375 C39.795 184.7775 39.465 184.1175 39.125 183.4375 Z M51.125 185.4375 C51.125 186.7575 51.125 188.0775 51.125 189.4375 C51.785 189.1075 52.445 188.7775 53.125 188.4375 C52.465 187.4475 51.805 186.4575 51.125 185.4375 Z M-29.875 187.4375 C-29.545 188.015 -29.215 188.5925 -28.875 189.1875 C-27.875 191.4375 -27.875 191.4375 -27.875 195.4375 C-29.375 197.1875 -29.375 197.1875 -30.875 198.4375 C-30.215 199.0975 -29.555 199.7575 -28.875 200.4375 C-28.545 199.4475 -28.215 198.4575 -27.875 197.4375 C-26.46066794 197.2138663 -25.04332382 197.00923524 -23.625 196.8125 C-22.83609375 196.69648438 -22.0471875 196.58046875 -21.234375 196.4609375 C-18.55347541 196.43430605 -17.14805911 197.07157916 -14.875 198.4375 C-14.875 200.4175 -14.875 202.3975 -14.875 204.4375 C-13.885 203.7775 -12.895 203.1175 -11.875 202.4375 C-12.20029059 199.50988473 -12.47069177 197.11134706 -14 194.5625 C-15.97641816 193.13736123 -15.97641816 193.13736123 -19.125 193.625 C-24.25697285 193.36840136 -26.39315176 190.99343012 -29.875 187.4375 Z M13.125 187.4375 C14.125 190.4375 14.125 190.4375 14.125 190.4375 Z M21.125 191.4375 C21.785 192.0975 22.445 192.7575 23.125 193.4375 C23.125 192.7775 23.125 192.1175 23.125 191.4375 C22.465 191.4375 21.805 191.4375 21.125 191.4375 Z M62.125 193.4375 C62.455 194.7575 62.785 196.0775 63.125 197.4375 C63.785 197.1075 64.445 196.7775 65.125 196.4375 C64.795 195.4475 64.465 194.4575 64.125 193.4375 C63.465 193.4375 62.805 193.4375 62.125 193.4375 Z M26.125 198.4375 C28.105 199.4275 28.105 199.4275 30.125 200.4375 C29.795 199.7775 29.465 199.1175 29.125 198.4375 C28.135 198.4375 27.145 198.4375 26.125 198.4375 Z M-24.875 201.4375 C-24.545 202.4275 -24.215 203.4175 -23.875 204.4375 C-22.225 204.1075 -20.575 203.7775 -18.875 203.4375 C-18.875 202.4475 -18.875 201.4575 -18.875 200.4375 C-22.6513932 200.1393576 -22.6513932 200.1393576 -24.875 201.4375 Z M-30.875 203.4375 C-31.64456136 205.78283951 -31.64456136 205.78283951 -31.875 208.4375 C-30.54121425 210.2729799 -30.54121425 210.2729799 -28.875 211.4375 C-27.225 210.7775 -25.575 210.1175 -23.875 209.4375 C-27.05039556 206.01171051 -27.05039556 206.01171051 -30.875 203.4375 Z M47.125 206.4375 C48.95784443 207.56266085 48.95784443 207.56266085 51.125 208.4375 C52.115 208.1075 53.105 207.7775 54.125 207.4375 C51.815 207.1075 49.505 206.7775 47.125 206.4375 Z M-0.875 210.4375 C-0.875 211.0975 -0.875 211.7575 -0.875 212.4375 C0.115 212.1075 1.105 211.7775 2.125 211.4375 C1.135 211.1075 0.145 210.7775 -0.875 210.4375 Z M12.125 215.4375 C12.90875 216.345 13.6925 217.2525 14.5 218.1875 C16.42552496 220.48940236 17.94705741 222.65327207 19.125 225.4375 C19.785 223.1275 20.445 220.8175 21.125 218.4375 C18.155 217.4475 15.185 216.4575 12.125 215.4375 Z M88.125 215.4375 C87.12656154 218.43281539 87.11767239 219.61005732 87.5625 222.625 C87.748125 223.883125 87.93375 225.14125 88.125 226.4375 C89.445 226.1075 90.765 225.7775 92.125 225.4375 C92.125 222.1375 92.125 218.8375 92.125 215.4375 C90.805 215.4375 89.485 215.4375 88.125 215.4375 Z M-73.875 216.4375 C-74.205 217.0975 -74.535 217.7575 -74.875 218.4375 C-71.40174819 219.5952506 -68.51432552 219.50616652 -64.875 219.4375 C-68.06262365 217.31241756 -70.14012223 216.9354837 -73.875 216.4375 Z M-6.875 218.4375 C-6.070625 219.345 -5.26625 220.2525 -4.4375 221.1875 C-1.10009163 224.95278124 -0.73995763 228.2546186 -0.8125 233.1875 C-0.82152344 233.98671875 -0.83054687 234.7859375 -0.83984375 235.609375 C-0.85724609 236.51429688 -0.85724609 236.51429688 -0.875 237.4375 C0.115 237.1075 1.105 236.7775 2.125 236.4375 C2.77381524 230.20887372 2.0029141 226.24758859 -1.390625 220.96875 C-3.15288151 219.15084328 -4.40632589 218.81729602 -6.875 218.4375 Z M-64.875 219.4375 C-61.13077034 222.38253542 -61.13077034 222.38253542 -56.875 224.4375 C-54.18506947 224.13371948 -54.18506947 224.13371948 -51.875 223.4375 C-56.18869972 220.56170019 -59.68234761 219.4375 -64.875 219.4375 Z M-14.875 220.4375 C-14.545 221.0975 -14.215 221.7575 -13.875 222.4375 C-13.215 222.4375 -12.555 222.4375 -11.875 222.4375 C-10.25774466 225.44700123 -9.19917377 228.40853608 -8.25 231.6875 C-7.98960938 232.57953125 -7.72921875 233.4715625 -7.4609375 234.390625 C-7.26757812 235.06609375 -7.07421875 235.7415625 -6.875 236.4375 C-5.885 236.4375 -4.895 236.4375 -3.875 236.4375 C-4.33730938 228.94422195 -4.33730938 228.94422195 -7.875 222.4375 C-10.82877498 220.06769987 -10.82877498 220.06769987 -14.875 220.4375 Z M9.125 220.4375 C10.775 223.7375 12.425 227.0375 14.125 230.4375 C15.49812951 227.39468186 15.49812951 227.39468186 13.875 224.3125 C12.38313222 221.16468727 12.38313222 221.16468727 9.125 220.4375 Z M4.125 221.4375 C5.115 225.7275 6.105 230.0175 7.125 234.4375 C8.115 233.7775 9.105 233.1175 10.125 232.4375 C8.90282954 228.39493617 7.49745704 224.94461041 5.125 221.4375 C4.795 221.4375 4.465 221.4375 4.125 221.4375 Z M28.125 221.4375 C27.795 222.4275 27.465 223.4175 27.125 224.4375 C27.785 224.4375 28.445 224.4375 29.125 224.4375 C28.795 223.4475 28.465 222.4575 28.125 221.4375 Z M83.125 221.4375 C84.125 224.4375 84.125 224.4375 84.125 224.4375 Z M-76.875 222.4375 C-76.67342285 223.03175781 -76.4718457 223.62601563 -76.26416016 224.23828125 C-75.33951385 226.97026322 -74.41972965 229.70385909 -73.5 232.4375 C-73.18289062 233.37207031 -72.86578125 234.30664062 -72.5390625 235.26953125 C-72.2296875 236.19121094 -71.9203125 237.11289062 -71.6015625 238.0625 C-71.29484619 238.97185303 -70.98812988 239.88120605 -70.67211914 240.81811523 C-69.94571785 243.20511659 -69.4740126 245.52091213 -69.03515625 247.97265625 C-68.23080466 251.64216777 -68.23080466 251.64216777 -65.08203125 253.05859375 C-63.96183594 253.32800781 -62.84164062 253.59742188 -61.6875 253.875 C-60.02654297 254.30619141 -60.02654297 254.30619141 -58.33203125 254.74609375 C-54.8566189 255.44117622 -51.38875246 255.97763151 -47.875 256.4375 C-49.95411016 240.11596406 -49.95411016 240.11596406 -57.8828125 227.0234375 C-60.18848538 225.9370357 -62.42962373 225.14918311 -64.875 224.4375 C-66.1125 224.025 -67.35 223.6125 -68.625 223.1875 C-71.54999277 222.51250167 -73.90176286 222.37682169 -76.875 222.4375 Z M-20.875 223.4375 C-21.205 224.0975 -21.535 224.7575 -21.875 225.4375 C-21.25625 225.994375 -20.6375 226.55125 -20 227.125 C-17.875 229.4375 -17.875 229.4375 -16.9375 232.125 C-16.586875 232.888125 -16.23625 233.65125 -15.875 234.4375 C-13.32724694 235.33136164 -13.32724694 235.33136164 -10.875 235.4375 C-13.39616495 228.27485434 -13.39616495 228.27485434 -18.875 223.4375 C-19.535 223.4375 -20.195 223.4375 -20.875 223.4375 Z M-49.875 225.4375 C-52.16456693 228.11615611 -52.16456693 228.11615611 -51.51953125 230.34765625 C-51.24496094 231.05792969 -50.97039062 231.76820313 -50.6875 232.5 C-50.39617187 233.29664063 -50.10484375 234.09328125 -49.8046875 234.9140625 C-49.49789062 235.74679687 -49.19109375 236.57953125 -48.875 237.4375 C-46.72006181 244.02784496 -45.10877729 250.61543735 -43.875 257.4375 C-43.215 257.1075 -42.555 256.7775 -41.875 256.4375 C-42.49799307 249.60557597 -43.71330746 243.10468758 -45.3125 236.4375 C-45.52970703 235.48488281 -45.74691406 234.53226563 -45.97070312 233.55078125 C-46.29264648 232.19533203 -46.29264648 232.19533203 -46.62109375 230.8125 C-46.91004517 229.58660156 -46.91004517 229.58660156 -47.20483398 228.3359375 C-47.69893798 226.23613478 -47.69893798 226.23613478 -49.875 225.4375 Z M24.125 226.4375 C24.125 227.4275 24.125 228.4175 24.125 229.4375 C25.775 229.4375 27.425 229.4375 29.125 229.4375 C26.86175716 227.35890082 26.86175716 227.35890082 24.125 226.4375 Z M-26.875 226.4375 C-27.865 227.0975 -28.855 227.7575 -29.875 228.4375 C-28.885 228.7675 -27.895 229.0975 -26.875 229.4375 C-26.1875 231.5 -26.1875 231.5 -25.875 233.4375 C-24.225 233.1075 -22.575 232.7775 -20.875 232.4375 C-22.91302135 228.37725679 -22.91302135 228.37725679 -26.875 226.4375 Z M-36.875 230.4375 C-36.545 231.0975 -36.215 231.7575 -35.875 232.4375 C-35.215 232.4375 -34.555 232.4375 -33.875 232.4375 C-33.215 234.0875 -32.555 235.7375 -31.875 237.4375 C-31.215 237.1075 -30.555 236.7775 -29.875 236.4375 C-30.44844937 233.57025314 -30.7364515 232.5760485 -32.875 230.4375 C-34.195 230.4375 -35.515 230.4375 -36.875 230.4375 Z M34.125 230.4375 C35.125 232.4375 35.125 232.4375 35.125 232.4375 Z M-41.875 232.4375 C-41.25625 233.530625 -40.6375 234.62375 -40 235.75 C-37.45870438 240.76950943 -36.64753012 245.90781075 -35.875 251.4375 C-35.545 251.4375 -35.215 251.4375 -34.875 251.4375 C-34.09362494 242.88453575 -34.09362494 242.88453575 -37.25 235.1875 C-38.11625 234.28 -38.9825 233.3725 -39.875 232.4375 C-40.535 232.4375 -41.195 232.4375 -41.875 232.4375 Z M19.125 232.4375 C19.125 233.4275 19.125 234.4175 19.125 235.4375 C22.11980917 236.3098412 24.76075911 236.54579766 27.875 236.5 C29.07382813 236.48646484 29.07382813 236.48646484 30.296875 236.47265625 C31.20179688 236.45525391 31.20179688 236.45525391 32.125 236.4375 C29.60019307 233.91269307 27.98676966 233.88011367 24.5 233.3125 C22.99566406 233.06113281 22.99566406 233.06113281 21.4609375 232.8046875 C20.69007813 232.68351563 19.91921875 232.56234375 19.125 232.4375 Z M33.125 236.4375 C33.125 236.7675 33.125 237.0975 33.125 237.4375 C34.775 237.4375 36.425 237.4375 38.125 237.4375 C38.125 237.1075 38.125 236.7775 38.125 236.4375 C36.475 236.4375 34.825 236.4375 33.125 236.4375 Z M-23.875 237.4375 C-24.205 238.0975 -24.535 238.7575 -24.875 239.4375 C-23.46122218 239.80302803 -22.04379424 240.15445495 -20.625 240.5 C-19.44164062 240.79583984 -19.44164062 240.79583984 -18.234375 241.09765625 C-15.77105178 241.45247267 -14.21895868 241.20627544 -11.875 240.4375 C-17.60790915 237.72905119 -17.60790915 237.72905119 -23.875 237.4375 Z M9.125 237.4375 C11.08133975 239.84871859 11.08133975 239.84871859 14.75 239.5625 C15.86375 239.52125 16.9775 239.48 18.125 239.4375 C18.125 239.1075 18.125 238.7775 18.125 238.4375 C15.155 238.1075 12.185 237.7775 9.125 237.4375 Z M48.125 238.4375 C48.125 239.0975 48.125 239.7575 48.125 240.4375 C48.90875 241.159375 49.6925 241.88125 50.5 242.625 C53.57666489 245.92142666 54.36328493 248.01955261 55.125 252.4375 C54.75 256.375 54.75 256.375 54.125 259.4375 C55.445 259.1075 56.765 258.7775 58.125 258.4375 C58.46999307 251.9976293 58.07421769 245.82596287 53.65625 240.75 C51.85810925 239.2087365 50.43538947 238.83584301 48.125 238.4375 Z M72.125 238.4375 C73.41799694 241.32187779 74.78441363 243.30969421 77.125 245.4375 C76.795 243.4575 76.465 241.4775 76.125 239.4375 C74.805 239.1075 73.485 238.7775 72.125 238.4375 Z M26.125 240.4375 C30.125 241.4375 30.125 241.4375 30.125 241.4375 Z M58.125 240.4375 C58.785 241.0975 59.445 241.7575 60.125 242.4375 C60.125 241.7775 60.125 241.1175 60.125 240.4375 C59.465 240.4375 58.805 240.4375 58.125 240.4375 Z M65.125 240.4375 C65.40214844 240.96859375 65.67929688 241.4996875 65.96484375 242.046875 C66.32707031 242.75328125 66.68929687 243.4596875 67.0625 244.1875 C67.42214844 244.88359375 67.78179687 245.5796875 68.15234375 246.296875 C69.08058182 248.33974433 69.65666578 250.24865376 70.125 252.4375 C70.785 252.4375 71.445 252.4375 72.125 252.4375 C71.71394145 247.19650345 70.88460806 244.19710806 67.125 240.4375 C66.465 240.4375 65.805 240.4375 65.125 240.4375 Z M-11.875 241.4375 C-8.67163178 244.27124881 -6.09412747 244.9580537 -1.875 245.4375 C-2.205 244.4475 -2.535 243.4575 -2.875 242.4375 C-5.845 242.1075 -8.815 241.7775 -11.875 241.4375 Z M40.125 241.4375 C40.125 242.0975 40.125 242.7575 40.125 243.4375 C40.90875 244.015 41.6925 244.5925 42.5 245.1875 C45.66786729 247.90281482 46.28215296 249.37650969 47.125 253.4375 C47.26781693 256.44650497 47.24537233 259.42819177 47.125 262.4375 C48.115 262.1075 49.105 261.7775 50.125 261.4375 C51.31758593 255.11160944 51.46628075 250.74550376 48.328125 245.03125 C47.03986008 243.14250274 47.03986008 243.14250274 44.125 241.4375 C42.805 241.4375 41.485 241.4375 40.125 241.4375 Z M81.125 241.4375 C80.795 242.7575 80.465 244.0775 80.125 245.4375 C80.785 245.1075 81.445 244.7775 82.125 244.4375 C81.795 243.4475 81.465 242.4575 81.125 241.4375 Z M-27.875 242.4375 C-27.46507812 243.59507812 -27.05515625 244.75265625 -26.6328125 245.9453125 C-26.08851344 247.48436502 -25.54424418 249.02342808 -25 250.5625 C-24.73058594 251.32304687 -24.46117187 252.08359375 -24.18359375 252.8671875 C-23.65398156 254.36560248 -23.12651997 255.8647795 -22.60131836 257.36474609 C-21.97337228 259.15676702 -21.33706772 260.94585495 -20.69921875 262.734375 C-19.96784858 265.13299187 -19.73777535 267.08861368 -19.5625 269.5625 C-19.1916734 271.67239488 -19.1916734 271.67239488 -17.875 273.4375 C-13.70109982 275.4619309 -9.38741341 276.4358434 -4.875 277.4375 C-3.39741277 277.80054194 -1.92084101 278.16774175 -0.4453125 278.5390625 C0.73289062 278.83554687 1.91109375 279.13203125 3.125 279.4375 C1.88668596 273.0812604 0.55983284 266.75232693 -0.875 260.4375 C-1.14054687 259.25929688 -1.40609375 258.08109375 -1.6796875 256.8671875 C-2.79010774 252.98600437 -3.58279386 250.31401483 -7 247.99609375 C-9.60138364 246.89457036 -12.13999135 246.13978467 -14.875 245.4375 C-16.68763707 244.85459273 -18.50014237 244.27127552 -20.3125 243.6875 C-23.06578419 242.85665341 -24.97231844 242.4375 -27.875 242.4375 Z M7.125 242.4375 C7.125 242.7675 7.125 243.0975 7.125 243.4375 C10.425 243.7675 13.725 244.0975 17.125 244.4375 C13.4808226 242.0080484 11.41258728 242.27570425 7.125 242.4375 Z M60.125 242.4375 C60.269375 243.28054688 60.41375 244.12359375 60.5625 244.9921875 C60.748125 246.08789062 60.93375 247.18359375 61.125 248.3125 C61.310625 249.40304687 61.49625 250.49359375 61.6875 251.6171875 C62.125 254.4375 62.125 254.4375 62.125 256.4375 C63.775 255.7775 65.425 255.1175 67.125 254.4375 C65.80815519 249.82854317 63.97301255 246.29609765 61.125 242.4375 C60.795 242.4375 60.465 242.4375 60.125 242.4375 Z M86.125 242.4375 C85.795 243.4275 85.465 244.4175 85.125 245.4375 C86.115 245.1075 87.105 244.7775 88.125 244.4375 C87.465 243.7775 86.805 243.1175 86.125 242.4375 Z M32.125 244.4375 C32.125 245.0975 32.125 245.7575 32.125 246.4375 C32.785 246.4375 33.445 246.4375 34.125 246.4375 C34.125 247.0975 34.125 247.7575 34.125 248.4375 C34.785 248.4375 35.445 248.4375 36.125 248.4375 C38.11098493 254.39545479 38.69545059 260.18642565 39.125 266.4375 C40.445 266.1075 41.765 265.7775 43.125 265.4375 C43.59679348 258.30817627 43.55135871 252.34424623 39.125 246.4375 C36.17122502 244.06769987 36.17122502 244.06769987 32.125 244.4375 Z M76.125 246.4375 C77.125 249.4375 77.125 249.4375 77.125 249.4375 Z M81.125 246.4375 C81.125 247.7575 81.125 249.0775 81.125 250.4375 C83.52219432 251.11708603 83.52219432 251.11708603 86.125 251.4375 C86.785 250.7775 87.445 250.1175 88.125 249.4375 C86.949375 249.251875 86.949375 249.251875 85.75 249.0625 C83.125 248.4375 83.125 248.4375 81.125 246.4375 Z M0.125 247.4375 C-0.25155268 251.45406187 0.77924884 254.30118697 2.265625 257.99609375 C3.68481222 262.02787564 4.5087077 266.19072959 5.4296875 270.359375 C6.19973991 273.76837107 7.11403121 277.0935263 8.125 280.4375 C9.38725952 278.87036353 9.38725952 278.87036353 10.125 276.4375 C9.69226221 273.68505217 9.15858284 271.17495599 8.4375 268.5 C8.05301282 266.98186515 7.6689027 265.46363476 7.28515625 263.9453125 C7.08937988 263.19024414 6.89360352 262.43517578 6.69189453 261.65722656 C5.86226113 258.4087223 5.11866699 255.1442607 4.375 251.875 C4.13265625 250.82183594 3.8903125 249.76867187 3.640625 248.68359375 C3.38539062 247.57177734 3.38539062 247.57177734 3.125 246.4375 C1.9013932 246.3629644 1.9013932 246.3629644 0.125 247.4375 Z M8.125 247.4375 C8.125 248.0975 8.125 248.7575 8.125 249.4375 C9.775 249.1075 11.425 248.7775 13.125 248.4375 C13.125 248.1075 13.125 247.7775 13.125 247.4375 C11.475 247.4375 9.825 247.4375 8.125 247.4375 Z M25.125 247.4375 C25.125 251.88983164 25.9063219 252.76814776 28.125 256.4375 C30.01753423 261.54734243 30.21365937 265.10306908 29.125 270.4375 C31.88141416 269.93993908 31.88141416 269.93993908 34.125 268.4375 C34.9327257 258.41704414 34.9327257 258.41704414 31.125 249.4375 C28.30990007 247.1601499 28.30990007 247.1601499 25.125 247.4375 Z M18.125 250.4375 C17.135 250.9325 17.135 250.9325 16.125 251.4375 C17.18556279 253.64020733 18.23439468 255.58627676 19.6875 257.5625 C21.46833511 261.12417021 21.66274147 264.19544968 21.9140625 268.1328125 C22.05106195 270.59642635 22.05106195 270.59642635 23.125 273.4375 C25.85416681 270.70833319 25.91790703 269.30323535 26.125 265.4375 C24.98198995 259.00163261 23.22997876 254.57667197 18.125 250.4375 Z M-28.875 253.4375 C-29.205 254.0975 -29.535 254.7575 -29.875 255.4375 C-29.215 255.4375 -28.555 255.4375 -27.875 255.4375 C-28.205 254.7775 -28.535 254.1175 -28.875 253.4375 Z M10.125 253.4375 C11.2795583 256.51632212 12.62333332 259.36624543 14.1875 262.25 C16.28203586 266.33784879 16.79922096 269.8765935 17.125 274.4375 C17.785 273.7775 18.445 273.1175 19.125 272.4375 C18.92722151 269.127248 18.92722151 269.127248 18.125 265.4375 C17.898125 264.24125 17.67125 263.045 17.4375 261.8125 C15.75175656 257.47773115 13.85730383 256.11502231 10.125 253.4375 Z M-35.875 256.4375 C-34.39 257.4275 -34.39 257.4275 -32.875 258.4375 C-32.875 257.7775 -32.875 257.1175 -32.875 256.4375 C-33.865 256.4375 -34.855 256.4375 -35.875 256.4375 Z M-40.875 261.4375 C-41.205 262.0975 -41.535 262.7575 -41.875 263.4375 C-41.215 263.4375 -40.555 263.4375 -39.875 263.4375 C-40.205 262.7775 -40.535 262.1175 -40.875 261.4375 Z M-29.875 262.4375 C-29.875 262.7675 -29.875 263.0975 -29.875 263.4375 C-28.225 263.4375 -26.575 263.4375 -24.875 263.4375 C-24.875 263.1075 -24.875 262.7775 -24.875 262.4375 C-26.525 262.4375 -28.175 262.4375 -29.875 262.4375 Z M-27.875 267.4375 C-23.875 268.4375 -23.875 268.4375 -23.875 268.4375 Z M-33.875 274.4375 C-33.875 274.7675 -33.875 275.0975 -33.875 275.4375 C-32.225 275.4375 -30.575 275.4375 -28.875 275.4375 C-28.875 275.1075 -28.875 274.7775 -28.875 274.4375 C-30.525 274.4375 -32.175 274.4375 -33.875 274.4375 Z M-24.875 276.4375 C-23.39 277.4275 -23.39 277.4275 -21.875 278.4375 C-21.215 278.1075 -20.555 277.7775 -19.875 277.4375 C-21.525 277.1075 -23.175 276.7775 -24.875 276.4375 Z M11.125 283.4375 C11.125 284.0975 11.125 284.7575 11.125 285.4375 C12.445 285.1075 13.765 284.7775 15.125 284.4375 C13.805 284.1075 12.485 283.7775 11.125 283.4375 Z " fill="#8C8C8C" transform="translate(120.875,43.5625)"/>
<path d="M0 0 C3.01245814 1.15863775 3.70906416 2.23911745 5.4375 4.9375 C6.49945848 7.75592974 7.38659602 10.59994861 8.27734375 13.4765625 C9.23203623 16.07537561 9.23203623 16.07537561 11.56640625 17.2734375 C12.18386719 17.49257813 12.80132812 17.71171875 13.4375 17.9375 C13.51871924 19.54082791 13.57679134 21.14534026 13.625 22.75 C13.67720703 24.08998047 13.67720703 24.08998047 13.73046875 25.45703125 C13.4375 27.9375 13.4375 27.9375 12.13671875 29.75390625 C9.40908727 31.65384266 6.67909862 31.04927926 3.4375 30.9375 C0.68625747 31.06899826 0.68625747 31.06899826 -1.5625 31.9375 C-2.2225 33.2575 -2.8825 34.5775 -3.5625 35.9375 C-6.5325 35.9375 -9.5025 35.9375 -12.5625 35.9375 C-12.8925 34.6175 -13.2225 33.2975 -13.5625 31.9375 C-15.21864657 31.55531233 -16.88707024 31.22354898 -18.5625 30.9375 C-18.8925 31.2675 -19.2225 31.5975 -19.5625 31.9375 C-22.65193142 32.02365944 -25.57813075 31.74700341 -28.5625 30.9375 C-30.5 28.4375 -30.5 28.4375 -31.5625 25.9375 C-32.2225 25.6075 -32.8825 25.2775 -33.5625 24.9375 C-35.11833996 21.97399531 -35.76656094 19.88716821 -35.0546875 16.57421875 C-33.02672209 10.40172209 -33.02672209 10.40172209 -31.5625 8.9375 C-29.89632885 8.89686168 -28.22861905 8.894779 -26.5625 8.9375 C-26.253125 8.298125 -25.94375 7.65875 -25.625 7 C-24.5625 4.9375 -24.5625 4.9375 -23.5625 3.9375 C-22.20916252 3.89011838 -20.85365698 3.90034989 -19.5 3.9375 C-12.39188886 3.99409324 -5.9458301 -0.14502025 0 0 Z M-1.5625 4.9375 C-2.8825 6.2575 -4.2025 7.5775 -5.5625 8.9375 C-3.0875 9.9275 -3.0875 9.9275 -0.5625 10.9375 C-0.2325 9.2875 0.0975 7.6375 0.4375 5.9375 C-0.2225 5.6075 -0.8825 5.2775 -1.5625 4.9375 Z M-21.5625 7.9375 C-21.5625 8.5975 -21.5625 9.2575 -21.5625 9.9375 C-20.9025 9.9375 -20.2425 9.9375 -19.5625 9.9375 C-19.5625 9.2775 -19.5625 8.6175 -19.5625 7.9375 C-20.2225 7.9375 -20.8825 7.9375 -21.5625 7.9375 Z M-19.5625 9.9375 C-18.9025 11.2575 -18.2425 12.5775 -17.5625 13.9375 C-15.9125 12.6175 -14.2625 11.2975 -12.5625 9.9375 C-14.8725 9.9375 -17.1825 9.9375 -19.5625 9.9375 Z M0.4375 11.9375 C0.664375 13.175 0.89125 14.4125 1.125 15.6875 C1.53416898 18.80603111 1.62076458 19.61877899 0 22.4375 C-0.515625 22.9325 -1.03125 23.4275 -1.5625 23.9375 C1.35267292 22.86348892 3.21560176 22.15939824 5.4375 19.9375 C3.91194034 15.12627153 3.91194034 15.12627153 0.4375 11.9375 Z M-20.5625 15.9375 C-20.8925 17.9175 -21.2225 19.8975 -21.5625 21.9375 C-19.5825 21.9375 -17.6025 21.9375 -15.5625 21.9375 C-15.8925 21.2775 -16.2225 20.6175 -16.5625 19.9375 C-17.2225 19.9375 -17.8825 19.9375 -18.5625 19.9375 C-19.2225 18.6175 -19.8825 17.2975 -20.5625 15.9375 Z M-11.5625 16.9375 C-11.8925 17.5975 -12.2225 18.2575 -12.5625 18.9375 C-9.5925 19.2675 -6.6225 19.5975 -3.5625 19.9375 C-3.2325 18.9475 -2.9025 17.9575 -2.5625 16.9375 C-5.5325 16.9375 -8.5025 16.9375 -11.5625 16.9375 Z M-10.5625 23.9375 C-9.2425 25.2575 -7.9225 26.5775 -6.5625 27.9375 C-5.2425 26.6175 -3.9225 25.2975 -2.5625 23.9375 C-5.2025 23.9375 -7.8425 23.9375 -10.5625 23.9375 Z " fill="#8C8C8C" transform="translate(234.5625,298.0625)"/>
<path d="M0 0 C2.83253266 2.31075033 3.83837867 3.515136 5 7 C5.36545132 11.93359277 5.2893948 15.16237274 2 19 C-3.29890567 21.64945283 -7.64398708 21.0307754 -13.1875 19.328125 C-18.8219697 17.35606061 -18.8219697 17.35606061 -20 15 C-20.12776827 10.43684751 -19.66443402 6.27868677 -16.875 2.5625 C-11.39972326 -2.31763796 -6.70634459 -2.78376568 0 0 Z M-10 3 C-10 3.33 -10 3.66 -10 4 C-8.02 4 -6.04 4 -4 4 C-4 3.67 -4 3.34 -4 3 C-5.98 3 -7.96 3 -10 3 Z M-13 5 C-13.33 5.99 -13.66 6.98 -14 8 C-13.01 8.495 -13.01 8.495 -12 9 C-11.67 7.68 -11.34 6.36 -11 5 C-11.66 5 -12.32 5 -13 5 Z M-3 5 C-3.33 6.98 -3.66 8.96 -4 11 C-2.68 10.34 -1.36 9.68 0 9 C-0.66 7.68 -1.32 6.36 -2 5 C-2.33 5 -2.66 5 -3 5 Z " fill="#8C8C8C" transform="translate(256,271)"/>
<path d="M0 0 C1.98 0.495 1.98 0.495 4 1 C4 1.66 4 2.32 4 3 C8.29760221 3.07813822 12.15318707 2.9852044 16.375 2.1875 C22.04672853 1.44642049 26.29750844 4.07027311 31 7 C31.495 7.495 31.495 7.495 32 8 C34.50128712 7.77675215 36.97141764 7.41473041 39.45703125 7.05859375 C42.3207734 6.99260891 43.52484279 7.65762643 46 9 C48.05448217 9.3046553 48.05448217 9.3046553 50.1875 9.375 C55.31892954 9.82677037 59.44633337 11.68548859 64 14 C64 14.99 64 15.98 64 17 C57.3831037 17.28769114 50.54639635 16.68453827 44.5 13.8125 C41.62535542 12.87824051 40.25602332 13.23431297 37.3125 13.75 C31.67824278 14.51297233 28.88474482 12.47006252 24.328125 9.375 C21.1109813 7.47494197 18.64827489 7.47881787 15 8 C14.01 8.33 13.02 8.66 12 9 C6.07427678 9.67083659 6.07427678 9.67083659 3.2109375 7.8828125 C1.74817172 6.65575305 0.36662975 5.33329732 -1 4 C-0.67 2.68 -0.34 1.36 0 0 Z " fill="#8C8C8C" transform="translate(110,139)"/>
<path d="M0 0 C3.375 2 3.375 2 6 4 C6.1706064 7.51449189 6.0493087 10.62575243 5 14 C1.47522122 17.43591881 -2.28904199 19 -7.1875 19 C-8.115625 18.67 -9.04375 18.34 -10 18 C-11.093125 17.67 -12.18625 17.34 -13.3125 17 C-16 15 -16 15 -16.59765625 12.80078125 C-16.85181083 10.52054927 -16.99038368 8.29349193 -17 6 C-15.30099815 4.98422665 -13.59029549 3.9880102 -11.875 3 C-10.92367188 2.443125 -9.97234375 1.88625 -8.9921875 1.3125 C-5.66953834 -0.14495446 -3.58856976 -0.39434833 0 0 Z M-5 5 C-5.66 5.66 -6.32 6.32 -7 7 C-3.95086772 8.01111093 -3.95086772 8.01111093 -1 7 C-1 6.34 -1 5.68 -1 5 C-2.32 5 -3.64 5 -5 5 Z M-12 10 C-11.01 10.99 -10.02 11.98 -9 13 C-8.67 12.34 -8.34 11.68 -8 11 C-9.32 10.67 -10.64 10.34 -12 10 Z " fill="#8C8C8C" transform="translate(270,295)"/>
<path d="M0 0 C2.75329021 1.79562405 4.52627461 3.05254922 6 6 C6.42894057 13.72093023 6.42894057 13.72093023 4 17 C0.56615393 19.54358968 -2.85511944 19.2960629 -7 19 C-9.4375 18 -9.4375 18 -11 17 C-11 16.34 -11 15.68 -11 15 C-11.66 15 -12.32 15 -13 15 C-14.33998624 8.78733655 -14.33998624 8.78733655 -12.8125 5.25 C-8.93100493 0.43159233 -6.32243748 -0.77643969 0 0 Z M-9 7 C-9.33 8.32 -9.66 9.64 -10 11 C-9.01 11.495 -9.01 11.495 -8 12 C-8 11.34 -8 10.68 -8 10 C-7.34 10 -6.68 10 -6 10 C-6.33 9.01 -6.66 8.02 -7 7 C-7.66 7 -8.32 7 -9 7 Z M-4 10 C-3.67 11.32 -3.34 12.64 -3 14 C-1.68 13.67 -0.36 13.34 1 13 C1 12.34 1 11.68 1 11 C-0.65 10.67 -2.3 10.34 -4 10 Z " fill="#8C8C8C" transform="translate(163,117)"/>
<path d="M0 0 C2.77995133 2.26785503 3.86241101 3.90616752 4.3125 7.484375 C4.37195412 10.05576588 4.38721748 12.45607122 4 15 C1.51981247 17.48018753 0.61484049 17.32361558 -2.8125 17.375 C-6.28016106 17.28981179 -7.91223463 17.04477825 -11.0625 15.4375 C-13.67526956 12.15046732 -14.14469296 10.19609595 -14 6 C-10.68730798 -0.03287002 -6.58930517 -1.88265862 0 0 Z M-9 8 C-8.67 9.32 -8.34 10.64 -8 12 C-6.02 11.34 -4.04 10.68 -2 10 C-1.34 10.66 -0.68 11.32 0 12 C0 10.68 0 9.36 0 8 C-2.97 8 -5.94 8 -9 8 Z " fill="#8C8C8C" transform="translate(117,107)"/>
<path d="M0 0 C1.75570312 0.04060547 1.75570312 0.04060547 3.546875 0.08203125 C4.43890625 0.11683594 5.3309375 0.15164063 6.25 0.1875 C7.50291458 5.1394957 6.72502266 7.66418272 4.25 12.1875 C1.34384811 14.09174513 -0.93735817 14.43823421 -4.375 14.375 C-5.53902344 14.36533203 -5.53902344 14.36533203 -6.7265625 14.35546875 C-8.75 14.1875 -8.75 14.1875 -10.75 13.1875 C-10.85824843 11.5848218 -10.93570645 9.98004252 -11 8.375 C-11.04640625 7.48167969 -11.0928125 6.58835937 -11.140625 5.66796875 C-10.75 3.1875 -10.75 3.1875 -9.15625 1.375 C-5.96522325 -0.19979242 -3.54098223 -0.10622947 0 0 Z M-4.75 4.1875 C-5.08 4.8475 -5.41 5.5075 -5.75 6.1875 C-2.285 5.6925 -2.285 5.6925 1.25 5.1875 C1.25 4.8575 1.25 4.5275 1.25 4.1875 C-0.73 4.1875 -2.71 4.1875 -4.75 4.1875 Z " fill="#8C8C8C" transform="translate(30.75,277.8125)"/>
<path d="M0 0 C2.29013653 3.4352048 2.17842973 4.985331 2 9 C-0.22552258 10.15341698 -2.45495969 11.29781159 -4.6875 12.4375 C-5.31333984 12.76298828 -5.93917969 13.08847656 -6.58398438 13.42382812 C-10.03713639 15.17752313 -13.15193519 16.47760497 -17 17 C-19 14 -19 14 -18.9375 12.125 C-15.99151881 5.44744264 -7.47317224 -1.39035763 0 0 Z " fill="#8C8C8C" transform="translate(119,90)"/>
<path d="M0 0 C0.33 2.31 0.66 4.62 1 7 C-2.11910856 8.79275866 -4.67682428 9.34290718 -8.25 9.625 C-9.14203125 9.69976562 -10.0340625 9.77453125 -10.953125 9.8515625 C-11.62859375 9.90054688 -12.3040625 9.94953125 -13 10 C-13.41378906 9.03320312 -13.41378906 9.03320312 -13.8359375 8.046875 C-14.84757889 5.71229528 -14.84757889 5.71229528 -17.625 5.25 C-18.40875 5.1675 -19.1925 5.085 -20 5 C-20 3.68 -20 2.36 -20 1 C-19.16855469 0.93941406 -18.33710938 0.87882812 -17.48046875 0.81640625 C-15.85044922 0.69072266 -15.85044922 0.69072266 -14.1875 0.5625 C-13.10855469 0.48128906 -12.02960938 0.40007812 -10.91796875 0.31640625 C-2.46666667 -0.6 -2.46666667 -0.6 0 0 Z " fill="#8C8C8C" transform="translate(173,77)"/>
<path d="M0 0 C1.21816406 0.03480469 1.21816406 0.03480469 2.4609375 0.0703125 C3.68683594 0.09738281 3.68683594 0.09738281 4.9375 0.125 C5.87722656 0.15980469 5.87722656 0.15980469 6.8359375 0.1953125 C7.9609375 5.9453125 7.9609375 5.9453125 6.8359375 8.1953125 C5.21129908 8.24926728 3.58615209 8.28808445 1.9609375 8.3203125 C1.05601563 8.34351563 0.15109375 8.36671875 -0.78125 8.390625 C-3.1640625 8.1953125 -3.1640625 8.1953125 -5.1640625 6.1953125 C-4.72873859 2.71272122 -3.81588634 0.34439407 0 0 Z " fill="#8C8C8C" transform="translate(29.1640625,262.8046875)"/>
</svg>
