<?xml version="1.0" standalone="no"?>
<!DOCTYPE svg PUBLIC "-//W3C//DTD SVG 20010904//EN"
 "http://www.w3.org/TR/2001/REC-SVG-20010904/DTD/svg10.dtd">
<svg version="1.0" xmlns="http://www.w3.org/2000/svg"
 width="300.000000pt" height="169.000000pt" viewBox="0 0 300.000000 169.000000"
 preserveAspectRatio="xMidYMid meet">
<metadata>
Created by potrace 1.10, written by Peter Selinger 2001-2011
</metadata>
<g transform="translate(0.000000,169.000000) scale(0.100000,-0.100000)"
fill="#F2F2F2" stroke="none">
<path d="M2170 1165 c0 -13 -32 -15 -228 -15 -126 0 -439 -3 -697 -7 l-468 -6
-21 -49 c-17 -39 -25 -47 -41 -43 -11 2 -30 5 -42 5 -15 0 -23 6 -23 18 0 12
-23 27 -73 50 l-73 33 -48 -27 c-26 -14 -59 -42 -74 -60 -23 -29 -31 -33 -56
-28 -41 9 -156 -40 -205 -87 -22 -20 -58 -47 -80 -60 -24 -13 -41 -30 -41 -40
0 -17 2 -17 38 -2 71 29 92 44 92 62 0 54 89 91 218 91 l67 0 38 55 c21 30 42
55 46 55 21 0 97 -32 116 -49 22 -20 142 -81 159 -81 11 0 36 86 36 122 0 16
45 17 653 11 531 -5 655 -8 668 -19 8 -8 20 -14 26 -14 5 0 18 -9 28 -20 12
-14 31 -20 57 -20 31 0 41 -4 45 -20 5 -17 14 -20 59 -20 35 0 56 -4 58 -12 2
-7 9 -38 16 -69 l13 -57 38 5 c91 13 165 -19 313 -131 26 -21 44 -10 72 45 13
27 26 49 28 49 3 0 29 -26 59 -57 l55 -57 -5 49 c-5 44 -12 57 -58 104 l-53
54 -20 -39 c-11 -21 -32 -50 -46 -63 -25 -23 -28 -24 -68 -11 -24 8 -59 24
-78 37 -19 12 -57 27 -85 33 -27 6 -67 16 -89 22 l-38 12 4 47 c5 47 4 47 -28
53 -17 4 -53 18 -79 31 -25 14 -57 25 -70 25 -50 0 -71 16 -73 56 -2 20 -5 41
-8 46 -9 14 -34 9 -34 -7z"/>
</g>
</svg>
