<?xml version="1.0" encoding="UTF-8"?>
<svg version="1.1" xmlns="http://www.w3.org/2000/svg" width="632" height="650">
<path d="M0 0 C1.59443162 -0.00346554 3.18886084 -0.00823607 4.78328514 -0.01418173 C9.12150979 -0.0265984 13.4595341 -0.02056437 17.79775906 -0.01122308 C22.4931359 -0.00439428 27.18847992 -0.01493268 31.8838501 -0.02316284 C41.06505901 -0.03646173 50.2461941 -0.03363963 59.42740583 -0.02492492 C66.89307731 -0.0181336 74.35872818 -0.0172379 81.82440186 -0.02049637 C82.8893281 -0.02095607 83.95425435 -0.02141577 85.05145109 -0.0218894 C87.21522411 -0.02284863 89.37899713 -0.02382127 91.54277015 -0.02480717 C111.80458293 -0.0333498 132.06635491 -0.02354464 152.328161 -0.00740607 C169.69161343 0.00599608 187.05500568 0.00366767 204.41845703 -0.01016235 C224.61067253 -0.02623809 244.80285232 -0.03252593 264.99507332 -0.02332556 C267.15062586 -0.02236997 269.30617841 -0.02142686 271.46173096 -0.02049637 C273.05234756 -0.01980213 273.05234756 -0.01980213 274.67509782 -0.01909386 C282.12673007 -0.01650996 289.57833955 -0.02086202 297.02996826 -0.02793503 C306.11826872 -0.03637241 315.20649149 -0.03402298 324.29478312 -0.0180928 C328.92654854 -0.01024013 333.55818473 -0.00706689 338.18994904 -0.01704025 C342.43879643 -0.02605033 346.6873961 -0.02095162 350.93622136 -0.0051076 C352.4642911 -0.0017863 353.99238224 -0.00339325 355.52043796 -0.01073496 C376.7795726 -0.10495482 394.09149325 4.33753177 409.89306641 19.19345093 C424.96249495 35.0039989 426.96103899 54.20322498 426.89703369 75.04905701 C426.89934251 76.70164595 426.90252184 78.35423387 426.90648818 80.00681967 C426.91478689 84.51493862 426.91073347 89.02297219 426.90451574 93.53109133 C426.89997202 98.40571758 426.90698448 103.28032962 426.91247559 108.154953 C426.92135058 117.69102037 426.91945608 127.22705619 426.9136503 136.76312477 C426.90912663 144.51538432 426.90852396 152.26763506 426.91069794 160.01989555 C426.9110044 161.12481401 426.91131087 162.22973246 426.91162662 163.36813329 C426.9122661 165.61300457 426.91291452 167.85787586 426.9135718 170.10274713 C426.91926948 191.13320264 426.91272589 212.16364069 426.90197107 233.19409334 C426.89303483 251.2265214 426.8945893 269.25892372 426.90380859 287.29135132 C426.91451901 308.25004562 426.91872152 329.20872463 426.91258407 350.16742128 C426.91194699 352.40355487 426.91131825 354.63968847 426.91069794 356.87582207 C426.91038939 357.97594279 426.91008083 359.07606351 426.90976293 360.20952122 C426.90803841 367.95007439 426.91094585 375.69061784 426.91565704 383.43116951 C426.92127439 392.86763284 426.91973141 402.30406291 426.90909556 411.74052245 C426.90385055 416.55212615 426.90176214 421.36367446 426.90839386 426.17527771 C426.91437961 430.58498341 426.91103509 434.99458268 426.90043876 439.40427881 C426.89821584 440.99426711 426.89931591 442.58426453 426.90419033 444.17424691 C426.9646659 465.55055214 422.90449949 482.53984595 408.08056641 498.50595093 C399.56116783 506.72755898 389.30897071 512.1753659 377.64306641 514.38095093 C376.74143151 514.55293115 375.83979661 514.72491138 374.91083944 514.90210313 C371.51028819 515.40040777 368.29490135 515.509936 364.85869789 515.515172 C364.19810263 515.51752423 363.53750737 515.51987647 362.85689408 515.52229998 C360.64567837 515.52895128 358.43452196 515.52853293 356.22329712 515.52812195 C354.62084883 515.531423 353.01840136 515.53514907 351.41595495 515.53926343 C347.01378581 515.54926433 342.61163032 515.55299715 338.20945144 515.55565274 C333.46073438 515.55956151 328.71202806 515.56913951 323.96331787 515.5778656 C312.49512 515.59761472 301.02692126 515.60769465 289.55871063 515.61659339 C284.15441872 515.62097919 278.75012778 515.62634527 273.34583664 515.63158226 C255.37396511 515.64859365 237.40209418 515.66308671 219.43021584 515.670331 C214.76793034 515.67224081 210.10564485 515.67416116 205.44335938 515.67611694 C203.7052347 515.67684255 203.7052347 515.67684255 201.93199639 515.67758282 C183.17083001 515.68587898 164.40972748 515.71120931 145.64858897 515.74369762 C126.37482898 515.77680073 107.10110139 515.79478274 87.82731283 515.79797524 C77.01075682 515.80013742 66.1942939 515.80884316 55.37776566 515.83443642 C46.16374302 515.85618791 36.94983608 515.864172 27.73579068 515.85446963 C23.03910835 515.84993771 18.3426645 515.85174637 13.64601517 515.87123108 C9.33626383 515.88895533 5.02692333 515.88779071 0.71716706 515.87233379 C-0.83205823 515.86997167 -2.38131267 515.87420777 -3.93049364 515.88616244 C-24.5047587 516.03494151 -41.29858318 510.61282347 -56.51708984 496.35751343 C-69.97142254 482.4106329 -72.82133188 465.07371305 -72.73788452 446.46018982 C-72.7413466 444.76792695 -72.74611485 443.07566634 -72.75206625 441.38341039 C-72.76453041 436.76091317 -72.75842683 432.13860298 -72.7491076 427.51610529 C-72.74229853 422.52009829 -72.75280756 417.52412265 -72.76104736 412.52812195 C-72.77436739 402.75160362 -72.77151458 392.97515451 -72.76280944 383.1986335 C-72.75602611 375.25041724 -72.75511899 367.30222033 -72.75838089 359.354002 C-72.75884059 358.22148317 -72.75930029 357.08896434 -72.75977392 355.92212675 C-72.76073312 353.62120966 -72.76170576 351.32029258 -72.76269169 349.0193755 C-72.77124062 327.45762721 -72.76141945 305.89591723 -72.74529059 284.33417522 C-72.73188969 265.84722516 -72.73421461 247.36033161 -72.74804688 228.87338257 C-72.7641146 207.38876857 -72.77041478 185.90418812 -72.76121008 164.41956896 C-72.76025447 162.12695118 -72.75931136 159.83433341 -72.75838089 157.54171562 C-72.75791806 156.41379952 -72.75745524 155.28588342 -72.75697839 154.12378805 C-72.75439194 146.18884611 -72.75875208 138.25392552 -72.76581955 130.31898689 C-72.77424807 120.64352952 -72.77192606 110.96814512 -72.75597732 101.29269607 C-72.74811254 96.3594372 -72.74497234 91.42629986 -72.75492477 86.49304199 C-72.7639095 81.97093895 -72.75887697 77.4490693 -72.74299212 72.92698722 C-72.73966022 71.29724886 -72.74130223 69.6674905 -72.74861948 68.03776515 C-72.8277535 48.93709638 -68.80887206 32.60357337 -55.35693359 18.38095093 C-39.57323659 3.16448054 -21.10165326 -0.10138517 0 0 Z M1.89697266 142.16220093 C-7.32431583 153.38411809 -6.93102312 165.99953782 -6.85864258 179.74838257 C-6.8624305 181.80272287 -6.86793443 183.85706062 -6.87501526 185.91139221 C-6.8889244 191.46506374 -6.87783231 197.01842389 -6.86130404 202.57207799 C-6.84740646 208.39699727 -6.85391891 214.22189933 -6.85743713 220.04682922 C-6.86013532 229.82565298 -6.84669656 239.60435371 -6.82348633 249.38314819 C-6.79687171 260.67411643 -6.79513338 271.96487915 -6.80687469 283.25586802 C-6.81766892 294.13803225 -6.81145295 305.02012244 -6.79731941 315.90228081 C-6.79157465 320.52444658 -6.79163039 325.1465579 -6.79638481 329.76872444 C-6.80117137 335.21483784 -6.79098338 340.66072733 -6.76943016 346.10679817 C-6.76388526 348.10055791 -6.76337579 350.09433927 -6.76838303 352.08810043 C-6.80015565 366.55811646 -6.46306666 377.87310788 3.89306641 389.00595093 C9.9230168 394.86732206 16.68343651 397.49946318 25.02679634 397.515172 C26.67539656 397.52185877 26.67539656 397.52185877 28.35730183 397.52868062 C29.56447798 397.52849626 30.77165413 397.5283119 32.01541138 397.52812195 C33.93943293 397.53363698 33.93943293 397.53363698 35.9023236 397.53926343 C39.46547739 397.54927493 43.02861433 397.55299885 46.59178019 397.55565274 C50.43379843 397.55955831 54.27580337 397.56913648 58.11781311 397.5778656 C67.39769511 397.59762287 76.67757819 397.60769529 85.95747596 397.61659339 C90.32849213 397.62097751 94.69950709 397.626344 99.07052231 397.63158226 C113.60240235 397.64859381 128.13428165 397.66308775 142.66617012 397.670331 C146.4367892 397.67224087 150.20740828 397.6741612 153.97802734 397.67611694 C155.38376516 397.67684255 155.38376516 397.67684255 156.81790172 397.67758282 C171.99756689 397.68588225 187.17715324 397.71121802 202.356784 397.74369762 C217.94435156 397.77677794 233.53187907 397.79478064 249.11948192 397.79797524 C257.8701414 397.80013944 266.62068594 397.80887487 275.37131119 397.83443642 C282.82410895 397.8561567 290.27676383 397.86418732 297.72958966 397.85446963 C301.53036815 397.84992875 305.33085193 397.8517985 309.13158989 397.87123108 C313.25753979 397.8921437 317.3828378 397.88186529 321.50881958 397.86869812 C323.29950731 397.88515199 323.29950731 397.88515199 325.12637055 397.90193826 C334.31441453 397.8312101 342.90715174 396.11686559 349.64306641 389.38095093 C349.64306641 388.72095093 349.64306641 388.06095093 349.64306641 387.38095093 C350.24763672 387.15278687 350.85220703 386.9246228 351.47509766 386.68954468 C354.26650656 385.00464021 354.96486594 383.37733741 356.33056641 380.44345093 C356.74693359 379.56817749 357.16330078 378.69290405 357.59228516 377.79110718 C359.65090619 373.06928867 359.79137613 368.99608523 359.79023743 363.92524719 C359.79575246 362.61504013 359.79575246 362.61504013 359.80137891 361.27836424 C359.81242689 358.33981628 359.81626151 355.40130367 359.82006836 352.46273804 C359.82633227 350.3603199 359.832979 348.25790287 359.83998108 346.15548706 C359.85739978 340.43410521 359.86794568 334.71273172 359.87618661 328.99132991 C359.88133597 325.41640945 359.88741179 321.84149158 359.89369774 318.26657295 C359.91275407 307.08060607 359.92698308 295.89464579 359.93530971 284.70866579 C359.94507832 271.79857268 359.97138632 258.8886512 360.0118106 245.97861856 C360.04198368 235.99971431 360.05677981 226.02085921 360.06009072 216.04191023 C360.06244023 210.08242246 360.07138776 204.12311794 360.0965519 198.16367912 C360.11985766 192.55351617 360.12405559 186.94365679 360.11379051 181.33345795 C360.11329562 179.27840985 360.11960217 177.22334669 360.13334656 175.1683445 C360.21690447 161.93039942 360.10544869 151.20419272 350.47900391 141.13095093 C340.87385567 131.97540537 329.61122096 130.924456 316.70178223 131 C314.83087756 130.99298004 314.83087756 130.99298004 312.92217684 130.98581827 C309.49479927 130.97599141 306.0679218 130.97943425 302.64057565 130.98877692 C298.93089426 130.99560674 295.22125437 130.98506683 291.51158142 130.97683716 C284.25804444 130.96353931 277.00460091 130.96635988 269.75106037 130.97507508 C263.85279571 130.98186683 257.95455713 130.98276192 252.05628967 130.97950363 C251.21489505 130.97904393 250.37350042 130.97858423 249.50660899 130.9781106 C247.79701117 130.97715137 246.08741335 130.97617873 244.37781554 130.97519283 C228.36951141 130.9666505 212.36125893 130.97645487 196.35296327 130.99259393 C182.63502258 131.00599606 168.91715807 131.00366764 155.19921875 130.98983765 C139.24584497 130.97376135 123.29251639 130.96747437 107.33913565 130.97667444 C105.63603815 130.97763002 103.93294065 130.97857314 102.22984314 130.97950363 C100.97310529 130.98019787 100.97310529 130.98019787 99.6909788 130.98090614 C93.80390824 130.98348988 87.9168665 130.97913834 82.02980042 130.97206497 C74.84954319 130.96362696 67.66938429 130.96597828 60.48913825 130.9819072 C56.82988174 130.9897591 53.17078881 130.99293458 49.51153374 130.98295975 C45.53571473 130.97228638 41.56016006 130.98508208 37.58435059 131 C36.44075089 130.99330783 35.29715119 130.98661567 34.11889696 130.97972071 C21.91458614 131.06821345 10.70005896 133.18187127 1.89697266 142.16220093 Z " fill="#000000" transform="translate(144.35693359375,40.619049072265625)"/>
<path d="M0 0 C4.64302945 3.93291906 7.73685008 8.78333086 11 13.875 C11.56468994 14.75357666 12.12937988 15.63215332 12.71118164 16.53735352 C35.35897157 52.16799295 67.75932203 104.03535363 59.68359375 148.08984375 C58.668096 152.41296274 57.12723916 156.11228705 55 160 C54.27490234 161.32837891 54.27490234 161.32837891 53.53515625 162.68359375 C44.44030685 178.11273826 29.47925868 187.09573148 12.46484375 191.68359375 C-4.55469256 195.40581512 -24.60285024 193.66641237 -39.58984375 184.3984375 C-42.12229965 182.66951272 -44.5690379 180.86839148 -47 179 C-47.9590625 178.29037109 -47.9590625 178.29037109 -48.9375 177.56640625 C-58.44116597 170.07802659 -65.54254488 157.62929307 -67.71484375 145.734375 C-72.16229152 103.08761554 -47.01939093 61.37391449 -26 26 C-25.57299805 25.27022949 -25.14599609 24.54045898 -24.70605469 23.78857422 C-19.95893894 15.67875903 -19.95893894 15.67875903 -18 13 C-17.34 13 -16.68 13 -16 13 C-15.79375 12.319375 -15.5875 11.63875 -15.375 10.9375 C-12.16573238 4.08133736 -7.96381571 -0.93691949 0 0 Z M-55 124 C-57.57245035 131.61841065 -56.01575268 139.75714628 -53 147 C-51.00511714 150.02396701 -51.00511714 150.02396701 -49 152 C-47.35 151.67 -45.7 151.34 -44 151 C-43.18203993 148.6703669 -42.81375221 147.46856023 -43.7421875 145.1328125 C-44.30292969 144.13894531 -44.30292969 144.13894531 -44.875 143.125 C-47.83864246 137.02398431 -47.80999886 130.67854001 -48 124 C-51.58327753 122.99782936 -51.58327753 122.99782936 -55 124 Z M-42 157 C-42.84885781 159.75574043 -42.84885781 159.75574043 -43 163 C-38.29404427 171.04488576 -30.56865528 176.22980307 -21.6953125 178.62109375 C-18.6850919 179.15587653 -16.63322947 179.36458666 -13.9375 177.8125 C-12.80783449 176.03741025 -12.80783449 176.03741025 -13.21875 173.98046875 C-13.4765625 173.32691406 -13.734375 172.67335938 -14 172 C-15.89558396 171.20185938 -17.80123456 170.41942709 -19.75 169.76171875 C-26.7224385 167.4012578 -30.86162858 164.59262416 -35.26171875 158.609375 C-36.93895853 156.72639427 -36.93895853 156.72639427 -39.70703125 156.765625 C-40.84205078 156.88164062 -40.84205078 156.88164062 -42 157 Z " fill="#000000" transform="translate(333,217)"/>
</svg>
